<svg width="25" height="25" viewBox="0 0 25 25" fill="none" xmlns="http://www.w3.org/2000/svg">
<path d="M15.3051 19.6062C15.1151 19.6062 14.9251 19.5363 14.7751 19.3863C14.4851 19.0963 14.4851 18.6163 14.7751 18.3263L20.3151 12.7863L14.7751 7.24625C14.4851 6.95625 14.4851 6.47625 14.7751 6.18625C15.0651 5.89625 15.5451 5.89625 15.8351 6.18625L21.9051 12.2563C22.1951 12.5463 22.1951 13.0262 21.9051 13.3162L15.8351 19.3863C15.6851 19.5363 15.4951 19.6062 15.3051 19.6062Z" fill="#FFD200"/>
<path d="M21.205 13.5361H4.375C3.965 13.5361 3.625 13.1961 3.625 12.7861C3.625 12.3761 3.965 12.0361 4.375 12.0361H21.205C21.615 12.0361 21.955 12.3761 21.955 12.7861C21.955 13.1961 21.615 13.5361 21.205 13.5361Z" fill="#FFD200"/>
</svg>