<svg width="25" height="25" viewBox="0 0 25 25" fill="none" xmlns="http://www.w3.org/2000/svg">
<path d="M17.945 22.9027C16.8938 22.9027 15.7868 22.6515 14.6426 22.1678C13.5263 21.6933 12.4007 21.0422 11.303 20.2515C10.2147 19.4515 9.16348 18.5584 8.16811 17.5817C7.18205 16.5863 6.28901 15.5351 5.4983 14.456C4.69829 13.3397 4.05641 12.2234 3.60059 11.1443C3.11686 9.99083 2.875 8.87454 2.875 7.82336C2.875 7.09776 3.00523 6.40938 3.2564 5.76751C3.51687 5.10703 3.93548 4.49307 4.50293 3.96283C5.21922 3.25584 6.03784 2.90234 6.91228 2.90234C7.27507 2.90234 7.64717 2.98607 7.96346 3.13491C8.32625 3.30235 8.63323 3.55352 8.85649 3.88841L11.0147 6.93032C11.21 7.20009 11.3589 7.46056 11.4612 7.72103C11.5821 8.0001 11.6472 8.27918 11.6472 8.54895C11.6472 8.90244 11.5449 9.24663 11.3496 9.57222C11.21 9.82339 10.9961 10.0932 10.7263 10.3629L10.0937 11.0234C10.103 11.0513 10.1123 11.0699 10.1216 11.0885C10.2333 11.2839 10.4565 11.6188 10.8844 12.1211C11.3403 12.642 11.7682 13.1165 12.1961 13.5537C12.7449 14.0932 13.2008 14.5211 13.6287 14.8746C14.1589 15.3212 14.5031 15.5444 14.7078 15.6467L14.6891 15.6933L15.3682 15.0235C15.6566 14.7351 15.9357 14.5211 16.2055 14.3816C16.7171 14.0653 17.3683 14.0095 18.0194 14.2793C18.2613 14.3816 18.5218 14.5211 18.8008 14.7165L21.8893 16.9119C22.2335 17.1444 22.4846 17.4421 22.6335 17.7956C22.773 18.1491 22.8381 18.4747 22.8381 18.8003C22.8381 19.2468 22.7358 19.6933 22.5404 20.1119C22.3451 20.5305 22.1032 20.8933 21.7962 21.2282C21.266 21.8143 20.6892 22.2329 20.0195 22.5027C19.3776 22.7631 18.6799 22.9027 17.945 22.9027ZM6.91228 4.29772C6.40064 4.29772 5.92621 4.52098 5.47039 4.96749C5.04248 5.3675 4.7448 5.80472 4.55875 6.27914C4.3634 6.76287 4.27037 7.27451 4.27037 7.82336C4.27037 8.68849 4.47503 9.62804 4.88434 10.5955C5.30295 11.5816 5.889 12.6048 6.6332 13.6281C7.3774 14.6514 8.22393 15.6467 9.15417 16.5863C10.0844 17.5072 11.0891 18.3631 12.1217 19.1166C13.1263 19.8515 14.1589 20.4468 15.1822 20.8747C16.7729 21.5538 18.2613 21.712 19.4892 21.2003C19.9637 21.005 20.3823 20.7073 20.7637 20.2794C20.9776 20.0468 21.1451 19.7956 21.2846 19.498C21.3962 19.2654 21.4521 19.0235 21.4521 18.7817C21.4521 18.6328 21.4241 18.484 21.3497 18.3166C21.3218 18.2607 21.266 18.1584 21.0893 18.0375L18.0008 15.8421C17.8148 15.7119 17.6473 15.6188 17.4892 15.5537C17.2845 15.47 17.2008 15.3863 16.8845 15.5816C16.6985 15.6746 16.531 15.8142 16.345 16.0002L15.638 16.6979C15.2752 17.0514 14.7171 17.1351 14.2891 16.977L14.038 16.8654C13.6566 16.6607 13.2101 16.3444 12.717 15.9258C12.2705 15.5444 11.7868 15.0979 11.2007 14.5211C10.7449 14.056 10.2891 13.563 9.81465 13.0141C9.37743 12.5025 9.06115 12.0653 8.8658 11.7025L8.75417 11.4234C8.69835 11.2095 8.67975 11.0885 8.67975 10.9583C8.67975 10.6234 8.80068 10.3257 9.03324 10.0932L9.73093 9.36757C9.91698 9.18152 10.0565 9.00477 10.1495 8.84663C10.224 8.7257 10.2519 8.62337 10.2519 8.53034C10.2519 8.45592 10.224 8.34429 10.1774 8.23266C10.1123 8.08382 10.01 7.91638 9.87977 7.73963L7.72159 4.68842C7.62857 4.55819 7.51694 4.46516 7.3774 4.40004C7.22856 4.33493 7.07042 4.29772 6.91228 4.29772ZM14.6891 15.7026L14.5403 16.3351L14.7915 15.6839C14.745 15.6746 14.7078 15.684 14.6891 15.7026Z" fill="black"/>
<path d="M18.9213 10.8094C18.5399 10.8094 18.2236 10.4932 18.2236 10.1118C18.2236 9.77687 17.8888 9.07918 17.3306 8.48382C16.7818 7.89777 16.1771 7.55358 15.6655 7.55358C15.2841 7.55358 14.9678 7.23729 14.9678 6.85589C14.9678 6.47449 15.2841 6.1582 15.6655 6.1582C16.5678 6.1582 17.5167 6.64193 18.3446 7.52567C19.1167 8.35359 19.619 9.36756 19.619 10.1118C19.619 10.4932 19.3027 10.8094 18.9213 10.8094Z" fill="black"/>
<path d="M22.1772 10.8095C21.7958 10.8095 21.4795 10.4932 21.4795 10.1118C21.4795 6.90241 18.8748 4.29772 15.6655 4.29772C15.2841 4.29772 14.9678 3.98143 14.9678 3.60003C14.9678 3.21863 15.2841 2.90234 15.6655 2.90234C19.6376 2.90234 22.8749 6.13961 22.8749 10.1118C22.8749 10.4932 22.5586 10.8095 22.1772 10.8095Z" fill="black"/>
</svg>
