<svg width="66" height="66" viewBox="0 0 66 66" fill="none" xmlns="http://www.w3.org/2000/svg">
<path d="M32.625 65.786C50.5743 65.786 65.125 51.2395 65.125 33.2954C65.125 15.3513 50.5743 0.804688 32.625 0.804688C14.6757 0.804688 0.125 15.3513 0.125 33.2954C0.125 51.2395 14.6757 65.786 32.625 65.786Z" fill="#F9F9F9"/>
<path d="M51.6553 15.9207V55.9122C51.6553 56.864 50.8809 57.6382 49.9287 57.6382H18.2031C17.251 57.6382 16.4766 56.864 16.4766 55.9122V10.1079C16.4766 9.15604 17.251 8.38184 18.2031 8.38184H44.1143L51.6553 15.9207Z" fill="white"/>
<path d="M51.6553 15.9207V55.9122C51.6553 56.864 50.8809 57.6382 49.9287 57.6382H47.4785C48.4307 57.6382 49.2051 56.864 49.2051 55.9122V15.9207L41.6641 8.38184H44.127L51.6553 15.9207Z" fill="#DBDCDD"/>
<path d="M51.6553 15.9207H45.8408C44.8887 15.9207 44.1143 15.1465 44.1143 14.1946V8.38184L51.6553 15.9207Z" fill="#BFC0C1"/>
<path d="M36.3557 25.1854H16.2754V23.1167H38.1831V23.9163C38.1651 24.6143 37.3508 25.1854 36.3557 25.1854Z" fill="#DBDCDD"/>
<path d="M38.2194 23.1041H13.5947V16.1111C13.5947 15.578 14.2099 15.1592 14.9517 15.1592H38.2194C38.9793 15.1592 39.5764 15.5907 39.5764 16.1111V22.1523C39.5764 22.6853 38.9612 23.1041 38.2194 23.1041Z" fill="#FF0000"/>
<path d="M35.2021 20.4461V17.6294H37.0395V18.2534H35.9475V20.4461H35.2021Z" fill="white"/>
<path d="M33.3243 20.4978C33.0643 20.4978 32.8361 20.44 32.6396 20.3245C32.4432 20.206 32.2901 20.037 32.1803 19.8175C32.0705 19.5979 32.0156 19.3336 32.0156 19.0245C32.0156 18.7154 32.0705 18.4539 32.1803 18.2401C32.2901 18.0235 32.4432 17.8588 32.6396 17.7461C32.8361 17.6335 33.0643 17.5771 33.3243 17.5771C33.5843 17.5771 33.8125 17.6335 34.009 17.7461C34.2054 17.8588 34.3585 18.0235 34.4683 18.2401C34.5781 18.4539 34.633 18.7154 34.633 19.0245C34.633 19.3336 34.5781 19.5979 34.4683 19.8175C34.3585 20.037 34.2054 20.206 34.009 20.3245C33.8125 20.44 33.5843 20.4978 33.3243 20.4978ZM33.3243 19.8565C33.437 19.8565 33.5337 19.8233 33.6146 19.7568C33.6984 19.6875 33.762 19.5907 33.8053 19.4665C33.8486 19.3423 33.8703 19.1949 33.8703 19.0245C33.8703 18.854 33.8486 18.7096 33.8053 18.5911C33.762 18.4698 33.6984 18.3774 33.6146 18.3138C33.5337 18.2503 33.437 18.2185 33.3243 18.2185C33.2116 18.2185 33.1134 18.2503 33.0296 18.3138C32.9487 18.3774 32.8866 18.4698 32.8433 18.5911C32.8 18.7096 32.7783 18.854 32.7783 19.0245C32.7783 19.1949 32.8 19.3423 32.8433 19.4665C32.8866 19.5907 32.9487 19.6875 33.0296 19.7568C33.1134 19.8233 33.2116 19.8565 33.3243 19.8565Z" fill="white"/>
<path d="M29.1687 20.4981C29.082 20.4981 29.0112 20.4937 28.9564 20.4851C28.9044 20.4764 28.8538 20.4663 28.8047 20.4547L28.9347 19.7874C28.952 19.7903 28.9694 19.7946 28.9867 19.8004C29.0069 19.8033 29.03 19.8047 29.056 19.8047C29.1022 19.8047 29.1441 19.7917 29.1817 19.7657C29.2221 19.7397 29.2611 19.682 29.2987 19.5924C29.3362 19.4999 29.3767 19.357 29.42 19.1634C29.4778 18.9121 29.5298 18.6578 29.576 18.4007C29.6222 18.1407 29.6685 17.8836 29.7147 17.6294H31.448V20.4461H30.7027V18.2534H30.2867C30.2578 18.4296 30.2275 18.5986 30.1957 18.7604C30.1668 18.9193 30.1365 19.0796 30.1047 19.2414C30.0411 19.5678 29.9675 19.8221 29.8837 20.0041C29.8028 20.1861 29.7046 20.3146 29.589 20.3897C29.4735 20.462 29.3334 20.4981 29.1687 20.4981Z" fill="white"/>
<path d="M26.1416 20.4461L26.9996 17.6294H27.9009L28.7589 20.4461H27.9703L27.6496 19.0767C27.6149 18.941 27.5803 18.7936 27.5456 18.6347C27.5109 18.4758 27.4763 18.3256 27.4416 18.1841H27.4243C27.3954 18.3256 27.3636 18.4758 27.3289 18.6347C27.2943 18.7936 27.2596 18.941 27.2249 19.0767L26.9043 20.4461H26.1416ZM26.7569 19.8481V19.2717H28.1349V19.8481H26.7569Z" fill="white"/>
<path d="M24.6975 20.4461V18.2534H23.9521V17.6294H26.1881V18.2534H25.4428V20.4461H24.6975Z" fill="white"/>
<path d="M21.5557 20.4461L22.4137 17.6294H23.315L24.173 20.4461H23.3843L23.0637 19.0767C23.029 18.941 22.9943 18.7936 22.9597 18.6347C22.925 18.4758 22.8903 18.3256 22.8557 18.1841H22.8383C22.8094 18.3256 22.7777 18.4758 22.743 18.6347C22.7083 18.7936 22.6737 18.941 22.639 19.0767L22.3183 20.4461H21.5557ZM22.171 19.8481V19.2717H23.549V19.8481H22.171Z" fill="white"/>
<path d="M19.125 20.4458V17.6291H19.8703V18.7038H20.1303L20.399 18.0798C20.4539 17.9527 20.5189 17.853 20.594 17.7808C20.672 17.7057 20.7572 17.6537 20.8497 17.6248C20.945 17.593 21.0461 17.5771 21.153 17.5771C21.2108 17.5771 21.2642 17.58 21.3133 17.5858C21.3624 17.5916 21.4043 17.6031 21.439 17.6205L21.3177 18.2878C21.3061 18.282 21.2888 18.2777 21.2657 18.2748C21.2454 18.2719 21.2194 18.2705 21.1877 18.2705C21.153 18.2705 21.1212 18.2777 21.0923 18.2921C21.0663 18.3037 21.0403 18.3254 21.0143 18.3571C20.9883 18.3889 20.9623 18.4323 20.9363 18.4871L20.711 18.9551L21.5777 20.4458H20.763L20.139 19.3018H19.8703V20.4458H19.125Z" fill="white"/>
<path d="M39.5764 22.0381V22.1523C39.5764 22.6853 38.9612 23.1041 38.2194 23.1041H13.5947V16.1111C13.5947 15.578 14.2099 15.1592 14.9517 15.1592H15.6573V17.6467C15.6573 20.0708 18.4618 22.0381 21.9176 22.0381H39.5764Z" fill="#D00003"/>
<path d="M13.5947 23.104L16.4892 26.4038V23.104H13.5947Z" fill="#7C0002"/>
<path d="M31.1397 30.9097H21.4912C21.1104 30.9097 20.8184 30.6051 20.8184 30.237V28.2952C20.8184 27.9145 21.1231 27.6226 21.4912 27.6226H31.1397C31.5205 27.6226 31.8125 27.9272 31.8125 28.2952V30.237C31.8252 30.6051 31.5205 30.9097 31.1397 30.9097Z" fill="#FF0000"/>
<path d="M45.6885 35.8212H21.7959C21.2627 35.8212 20.8184 35.3897 20.8184 34.844C20.8184 34.3109 21.25 33.8667 21.7959 33.8667H45.6885C46.2217 33.8667 46.666 34.2982 46.666 34.844C46.6533 35.3897 46.2217 35.8212 45.6885 35.8212Z" fill="#BFC0C1"/>
<path d="M45.6885 41.1518H21.7959C21.2627 41.1518 20.8184 40.7203 20.8184 40.1745C20.8184 39.6415 21.25 39.1973 21.7959 39.1973H45.6885C46.2217 39.1973 46.666 39.6288 46.666 40.1745C46.6533 40.7203 46.2217 41.1518 45.6885 41.1518Z" fill="#BFC0C1"/>
<path d="M45.6885 46.4823H21.7959C21.2627 46.4823 20.8184 46.0508 20.8184 45.5051C20.8184 44.972 21.25 44.5278 21.7959 44.5278H45.6885C46.2217 44.5278 46.666 44.9593 46.666 45.5051C46.6533 46.0508 46.2217 46.4823 45.6885 46.4823Z" fill="#BFC0C1"/>
<path d="M45.6885 51.8129H21.7959C21.2627 51.8129 20.8184 51.3814 20.8184 50.8357C20.8184 50.3026 21.25 49.8584 21.7959 49.8584H45.6885C46.2217 49.8584 46.666 50.2899 46.666 50.8357C46.6533 51.3814 46.2217 51.8129 45.6885 51.8129Z" fill="#BFC0C1"/>
</svg>
