<svg width="21" height="21" viewBox="0 0 21 21" fill="none" xmlns="http://www.w3.org/2000/svg">
<path d="M4.74166 17.0528C4.23332 17.0528 3.75832 16.8778 3.41666 16.5528C2.98332 16.1444 2.77499 15.5278 2.84999 14.8611L3.15832 12.1611C3.21666 11.6528 3.52499 10.9778 3.88332 10.6111L10.725 3.36943C12.4333 1.56109 14.2167 1.51109 16.025 3.21943C17.8333 4.92776 17.8833 6.71109 16.175 8.51943L9.33332 15.7611C8.98332 16.1361 8.33332 16.4861 7.82499 16.5694L5.14166 17.0278C4.99999 17.0361 4.87499 17.0528 4.74166 17.0528ZM13.4 3.21109C12.7583 3.21109 12.2 3.61109 11.6333 4.21109L4.79166 11.4611C4.62499 11.6361 4.43332 12.0528 4.39999 12.2944L4.09166 14.9944C4.05832 15.2694 4.12499 15.4944 4.27499 15.6361C4.42499 15.7778 4.64999 15.8278 4.92499 15.7861L7.60832 15.3278C7.84999 15.2861 8.24999 15.0694 8.41666 14.8944L15.2583 7.65276C16.2917 6.55276 16.6667 5.53609 15.1583 4.11943C14.4917 3.47776 13.9167 3.21109 13.4 3.21109Z" fill="#757575"/>
<path d="M14.5757 9.91117C14.559 9.91117 14.534 9.91117 14.5174 9.91117C11.9174 9.65284 9.82569 7.67784 9.42569 5.0945C9.37569 4.75284 9.60902 4.43617 9.95069 4.37784C10.2924 4.32784 10.609 4.56117 10.6674 4.90284C10.984 6.9195 12.6174 8.4695 14.6507 8.6695C14.9924 8.70284 15.2424 9.01117 15.209 9.35284C15.1674 9.6695 14.8924 9.91117 14.5757 9.91117Z" fill="#757575"/>
<path d="M17.625 19.7446H2.625C2.28333 19.7446 2 19.4613 2 19.1196C2 18.778 2.28333 18.4946 2.625 18.4946H17.625C17.9667 18.4946 18.25 18.778 18.25 19.1196C18.25 19.4613 17.9667 19.7446 17.625 19.7446Z" fill="#757575"/>
</svg>
