<svg width="24" height="25" viewBox="0 0 24 25" fill="none" xmlns="http://www.w3.org/2000/svg">
<path d="M9.56988 19.3201C9.75988 19.3201 9.94988 19.2501 10.0999 19.1001C10.3899 18.8101 10.3899 18.3301 10.0999 18.0401L4.55988 12.5001L10.0999 6.96012C10.3899 6.67012 10.3899 6.19012 10.0999 5.90012C9.80988 5.61012 9.32988 5.61012 9.03988 5.90012L2.96988 11.9701C2.67988 12.2601 2.67988 12.7401 2.96988 13.0301L9.03988 19.1001C9.18988 19.2501 9.37988 19.3201 9.56988 19.3201Z" fill="black"/>
<path d="M3.67 13.25H20.5C20.91 13.25 21.25 12.91 21.25 12.5C21.25 12.09 20.91 11.75 20.5 11.75H3.67C3.26 11.75 2.92 12.09 2.92 12.5C2.92 12.91 3.26 13.25 3.67 13.25Z" fill="black"/>
</svg>