<svg width="25" height="25" viewBox="0 0 25 25" fill="none" xmlns="http://www.w3.org/2000/svg">
<path d="M12.8749 15.0723C10.7449 15.0723 9.00488 13.3423 9.00488 11.2023C9.00488 9.06229 10.7449 7.34229 12.8749 7.34229C15.0049 7.34229 16.7449 9.07229 16.7449 11.2123C16.7449 13.3523 15.0049 15.0723 12.8749 15.0723ZM12.8749 8.84229C11.5749 8.84229 10.5049 9.90229 10.5049 11.2123C10.5049 12.5223 11.5649 13.5823 12.8749 13.5823C14.1849 13.5823 15.2449 12.5223 15.2449 11.2123C15.2449 9.90229 14.1749 8.84229 12.8749 8.84229Z" fill="#292D32"/>
<path d="M12.8752 23.6623C11.3952 23.6623 9.90518 23.1023 8.74518 21.9923C5.79518 19.1523 2.53518 14.6223 3.76518 9.23234C4.87518 4.34234 9.14518 2.15234 12.8752 2.15234C12.8752 2.15234 12.8752 2.15234 12.8852 2.15234C16.6152 2.15234 20.8852 4.34234 21.9952 9.24234C23.2152 14.6323 19.9552 19.1523 17.0052 21.9923C15.8452 23.1023 14.3552 23.6623 12.8752 23.6623ZM12.8752 3.65234C9.96518 3.65234 6.22518 5.20234 5.23518 9.56234C4.15518 14.2723 7.11518 18.3323 9.79518 20.9023C11.5252 22.5723 14.2352 22.5723 15.9652 20.9023C18.6352 18.3323 21.5952 14.2723 20.5352 9.56234C19.5352 5.20234 15.7852 3.65234 12.8752 3.65234Z" fill="#292D32"/>
</svg>
