<svg width="181" height="61" viewBox="0 0 181 61" fill="none" xmlns="http://www.w3.org/2000/svg">
<path fill-rule="evenodd" clip-rule="evenodd" d="M2.20898 54.8872C2.92734 52.5032 3.68517 49.9692 4.39563 47.5852C8.65052 47.9088 14.9026 48.4456 17.0656 45.6906C17.7287 44.846 17.9971 43.4487 18.4786 41.8462C19.6627 37.8913 23.0414 26.6344 23.5071 25.0635H32.0643C30.7302 29.5078 27.8488 39.1386 26.6963 42.9987C25.0465 48.4851 23.965 50.4191 21.0047 52.7479C16.9551 55.9292 7.11908 55.3056 2.20898 54.8872Z" fill="#FFD200"/>
<path fill-rule="evenodd" clip-rule="evenodd" d="M20.2707 10.1358L33.3353 22.5058H21.5179L15.6448 42.1067C14.808 44.8854 12.7319 45.1854 10.3479 45.1538C8.57959 45.1301 6.81921 45.1538 5.21672 44.8775C7.45074 37.4176 9.68475 29.9578 11.9267 22.4979H0.875L20.2707 10.1279V10.1358Z" fill="#FF0000"/>
<path fill-rule="evenodd" clip-rule="evenodd" d="M43.1793 44.0567C47.4657 44.0567 52.66 46.567 58.4543 49.3615C54.4914 51.8165 50.4971 53.3637 46.5974 53.419C41.561 53.419 36.6667 51.8086 36.6667 48.1616C36.6667 45.7697 38.6639 44.0567 43.1793 44.0567ZM75.5054 47.2774C81.6785 43.5514 87.4964 39.0755 92.4934 34.4259C105.692 21.2271 116.089 2.77081 141.586 2.77081C154.959 2.77081 170.581 7.57039 170.581 16.9406C170.581 20.2166 168.75 23.9505 166.026 25.0715C166.169 25.7583 166.224 26.1924 166.374 26.8792C176.865 25.6635 180.875 22.0086 180.875 16.3407C180.875 5.96 160.39 0 140.205 0C120.02 0 104.824 4.7759 90.3857 18.3221C84.102 24.2189 75.1738 35.8311 65.5589 44.0803C59.441 42.2805 52.6521 40.7727 45.2396 40.7727C37.8271 40.7727 27.478 43.4567 27.478 49.2352C27.478 54.4373 38.6481 56.9634 46.1159 56.9634C52.3127 56.9634 58.8647 55.2899 65.3142 52.5428C70.7453 54.8952 76.5474 56.8213 82.5153 56.8213C93.5512 56.8213 101.137 49.8509 105.376 43.8988C106.276 44.6803 107.484 45.1539 108.897 45.1539H121.133C121.741 45.1539 122.222 45.596 122.12 46.2196C122.049 46.6143 121.938 47.0011 121.875 47.3958C121.772 48.0195 121.172 48.4458 120.557 48.4458H112.773C113.278 48.7694 113.744 49.1404 114.17 49.5667C115.615 51.0192 116.515 53.0006 116.547 55.1794H122.451C125.948 55.1794 129.264 52.298 129.84 48.8641C130.077 47.4906 130.345 46.1249 130.582 44.7434C131.158 41.2859 128.861 38.4282 125.325 38.4282H113.081C112.505 38.4282 112.086 37.9388 112.181 37.3625C112.252 36.9678 112.363 36.581 112.426 36.1863C112.521 35.6179 113.073 35.1206 113.657 35.1206H140.244L138.074 47.7432C138.997 47.3801 140 47.1748 141.042 47.1748C142.952 47.1748 144.712 47.8379 146.094 48.951L146.497 46.6775L150.286 48.8641L148.723 57.6897H160.785L161.219 55.2267H151.659L154.288 40.4333H151.786L150.744 46.2986L146.954 44.1119C147.491 41.1201 148.02 38.1203 148.533 35.1285H156.577C156.98 35.1285 157.319 34.8443 157.39 34.4417C157.706 32.7524 158.006 31.0631 158.274 29.358C158.346 28.8606 157.967 28.4107 157.453 28.4107H111.763C108.258 28.4107 105.029 31.2999 104.445 34.7259C104.279 35.7127 104.09 36.6915 103.916 37.6704C101.627 44.4908 94.0406 50.1114 88.2701 50.1114C84.623 50.1114 80.3602 48.8641 75.5133 47.2774H75.5054Z" fill="#FF0000"/>
<path d="M148.006 38.1714H148L147.02 43.7441C147.353 41.8881 147.682 40.0292 148.006 38.1714Z" fill="#8F8F8F"/>
<path d="M146.955 44.1124L146.504 46.6815L150.286 48.8639L148.722 57.6895H160.785L161.219 55.2265H151.659L154.288 40.4331H151.785L150.743 46.2984L146.955 44.1124Z" fill="#8F8F8F"/>
<path fill-rule="evenodd" clip-rule="evenodd" d="M141.018 60.9024C144.128 60.9024 146.647 58.3842 146.647 55.274C146.647 52.1637 144.128 49.6455 141.018 49.6455C137.908 49.6455 135.39 52.1637 135.39 55.274C135.39 58.3842 137.908 60.9024 141.018 60.9024ZM108.431 60.9024C111.542 60.9024 114.06 58.3842 114.06 55.274C114.06 52.1637 111.542 49.6455 108.431 49.6455C105.321 49.6455 102.803 52.1637 102.803 55.274C102.803 58.3842 105.321 60.9024 108.431 60.9024Z" fill="#FF0000"/>
</svg>
