<svg width="25" height="25" viewBox="0 0 25 25" fill="none" xmlns="http://www.w3.org/2000/svg">
<path d="M5.375 5.40234C3.99429 5.40234 2.875 6.52163 2.875 7.90234V17.9023C2.875 19.2831 3.99429 20.4023 5.375 20.4023H20.375C21.7557 20.4023 22.875 19.2831 22.875 17.9023V7.90234C22.875 6.52163 21.7557 5.40234 20.375 5.40234H5.375ZM4.54167 8.34833L11.4882 12.9794C12.328 13.5392 13.422 13.5392 14.2618 12.9794L21.2083 8.34833V17.9023C21.2083 18.3626 20.8352 18.7357 20.375 18.7357H5.375C4.91476 18.7357 4.54167 18.3626 4.54167 17.9023V8.34833ZM20.1227 7.06901L13.3372 11.5926C13.0573 11.7792 12.6927 11.7792 12.4127 11.5926L5.62731 7.06901H20.1227Z" fill="black"/>
</svg>
