<svg width="20" height="21" viewBox="0 0 20 21" fill="none" xmlns="http://www.w3.org/2000/svg">
<g clip-path="url(#clip0_214_62464)">
<path d="M2.50146 2.85352C1.12075 2.85352 0.00146484 3.9728 0.00146484 5.35352V15.3535C0.00146484 16.7342 1.12075 17.8535 2.50146 17.8535H17.5015C18.8822 17.8535 20.0015 16.7342 20.0015 15.3535V5.35352C20.0015 3.9728 18.8822 2.85352 17.5015 2.85352H2.50146ZM1.66813 5.7995L8.61471 10.4306C9.45446 10.9904 10.5485 10.9904 11.3882 10.4306L18.3348 5.7995V15.3535C18.3348 15.8138 17.9617 16.1868 17.5015 16.1868H2.50146C2.04123 16.1868 1.66813 15.8138 1.66813 15.3535V5.7995ZM17.2492 4.52018L10.4637 9.04381C10.1838 9.23042 9.81913 9.23042 9.53921 9.04381L2.75378 4.52018H17.2492Z" fill="white"/>
</g>
<defs>
<clipPath id="clip0_214_62464">
<rect width="20" height="20" fill="white" transform="translate(0.00146484 0.353516)"/>
</clipPath>
</defs>
</svg>
