<svg width="21" height="21" viewBox="0 0 21 21" fill="none" xmlns="http://www.w3.org/2000/svg">
<g clip-path="url(#clip0_214_61914)">
<path d="M3.00244 2.95117C1.62173 2.95117 0.502441 4.07046 0.502441 5.45117V15.4512C0.502441 16.8319 1.62173 17.9512 3.00244 17.9512H18.0024C19.3832 17.9512 20.5024 16.8319 20.5024 15.4512V5.45117C20.5024 4.07046 19.3832 2.95117 18.0024 2.95117H3.00244ZM2.16911 5.89716L9.11569 10.5282C9.95544 11.088 11.0494 11.088 11.8892 10.5282L18.8358 5.89716V15.4512C18.8358 15.9114 18.4627 16.2845 18.0024 16.2845H3.00244C2.5422 16.2845 2.16911 15.9114 2.16911 15.4512V5.89716ZM17.7501 4.61784L10.9647 9.14146C10.6848 9.32807 10.3201 9.32807 10.0402 9.14146L3.25475 4.61784H17.7501Z" fill="#757575"/>
</g>
<defs>
<clipPath id="clip0_214_61914">
<rect width="20" height="20" fill="white" transform="translate(0.502441 0.451172)"/>
</clipPath>
</defs>
</svg>
