<svg width="101" height="101" viewBox="0 0 101 101" fill="none" xmlns="http://www.w3.org/2000/svg">
<rect x="0.875" y="0.902344" width="100" height="100" rx="3" fill="#5181B8"/>
<path fill-rule="evenodd" clip-rule="evenodd" d="M70.9114 40.1196C71.2035 39.1461 70.9114 38.4307 69.5218 38.4307H64.9269C63.7585 38.4307 63.2203 39.0487 62.9282 39.7303C62.9282 39.7303 60.5914 45.4256 57.2811 49.1251C56.2102 50.196 55.7235 50.5364 55.1393 50.5364C54.8472 50.5364 54.4245 50.196 54.4245 49.2226V40.1196C54.4245 38.9512 54.0854 38.4307 53.1117 38.4307H45.8912C45.1613 38.4307 44.7222 38.9729 44.7222 39.4868C44.7222 40.5945 46.377 40.8498 46.5476 43.9651V50.7317C46.5476 52.2151 46.2798 52.4843 45.6956 52.4843C44.138 52.4843 40.3492 46.763 38.1017 40.2171C37.6613 38.9446 37.2195 38.4307 36.0452 38.4307H31.4504C30.1376 38.4307 29.875 39.0487 29.875 39.7303C29.875 40.9473 31.433 46.9836 37.1283 54.9668C40.9255 60.4182 46.2746 63.374 51.1425 63.374C54.0635 63.374 54.4245 62.7176 54.4245 61.5869V57.4664C54.4245 56.1536 54.7012 55.8916 55.6257 55.8916C56.3077 55.8916 57.4758 56.2323 60.2021 58.8609C63.3174 61.9758 63.8307 63.374 65.5833 63.374H70.1782C71.491 63.374 72.1474 62.7176 71.7686 61.4222C71.3544 60.131 69.867 58.2583 67.8932 56.0377C66.8223 54.7718 65.2158 53.4088 64.7294 52.7275C64.0477 51.8512 64.2423 51.4619 64.7294 50.6834C64.7294 50.6834 70.3272 42.7974 70.9114 40.1199V40.1196Z" fill="white"/>
</svg>
