<svg width="101" height="101" viewBox="0 0 101 101" fill="none" xmlns="http://www.w3.org/2000/svg">
<rect x="0.875" y="0.902344" width="100" height="100" rx="3" fill="#00AFF0"/>
<path d="M70.3884 54.4002C70.3751 54.474 70.3658 54.5485 70.3518 54.6223L70.28 54.1993C70.3192 54.2652 70.3518 54.3337 70.3884 54.4002C70.6053 53.2202 70.719 52.0124 70.719 50.8051C70.719 48.128 70.1949 45.5306 69.1592 43.0856C68.1602 40.7237 66.7308 38.6026 64.9084 36.7814C63.0886 34.9603 60.9661 33.5309 58.6055 32.5319C56.1612 31.4976 53.5638 30.9734 50.8866 30.9734C49.6249 30.9734 48.3611 31.0918 47.1313 31.328C47.1286 31.3286 47.1253 31.3286 47.122 31.3293C47.1911 31.3659 47.261 31.3985 47.3288 31.4364L46.9118 31.3712C46.9816 31.3579 47.0521 31.3433 47.122 31.3293C45.4345 30.432 43.5369 29.9531 41.616 29.9531C38.4799 29.9531 35.5313 31.1743 33.3138 33.3925C31.0969 35.6101 29.875 38.5587 29.875 41.6948C29.875 43.6908 30.3885 45.653 31.3523 47.387C31.3649 47.3152 31.3736 47.2427 31.3875 47.1708L31.4594 47.5865C31.4221 47.5214 31.3895 47.4535 31.3523 47.387C31.1567 48.5104 31.0536 49.6584 31.0536 50.8051C31.0536 53.483 31.5777 56.0797 32.6134 58.5254C33.6111 60.8879 35.0411 63.0077 36.8616 64.8289C38.6841 66.65 40.8038 68.0814 43.1671 69.0777C45.6114 70.114 48.2095 70.6388 50.8866 70.6388C52.052 70.6388 53.2199 70.5324 54.36 70.3302C54.2935 70.2929 54.2256 70.259 54.1578 70.2198L54.5815 70.2943C54.5083 70.3082 54.4345 70.3169 54.36 70.3302C56.1166 71.3239 58.1054 71.852 60.136 71.852C63.2715 71.852 66.2187 70.6328 68.4362 68.4139C70.6545 66.1977 71.875 63.2485 71.875 60.1124C71.875 58.1097 71.3589 56.1409 70.3884 54.4002ZM50.9658 62.9512C43.92 62.9512 40.7679 59.4872 40.7679 56.8911C40.7679 55.5595 41.751 54.6263 43.1059 54.6263C46.1209 54.6263 45.3401 58.9557 50.9658 58.9557C53.8458 58.9557 55.4362 57.392 55.4362 55.7917C55.4362 54.8292 54.9613 53.7623 53.065 53.2947L46.798 51.7303C41.751 50.4646 40.8351 47.7362 40.8351 45.1714C40.8351 39.8464 45.8489 37.847 50.5574 37.847C54.8947 37.847 60.0076 40.2441 60.0076 43.4388C60.0076 44.8076 58.8224 45.6038 57.4682 45.6038C54.8947 45.6038 55.3683 42.042 50.1849 42.042C47.6128 42.042 46.1881 43.2066 46.1881 44.8735C46.1881 46.537 48.2194 47.0684 49.9834 47.4701L54.622 48.4998C59.703 49.6318 60.9914 52.5983 60.9914 55.3926C60.9914 59.7199 57.6697 62.9512 50.9658 62.9512ZM54.1578 70.2198C54.2256 70.259 54.2935 70.2929 54.36 70.3302C54.4345 70.3169 54.5083 70.3082 54.5815 70.2943L54.1578 70.2198ZM70.3518 54.6223C70.3658 54.5485 70.3751 54.474 70.3884 54.4002C70.3518 54.3337 70.3192 54.2652 70.28 54.1993L70.3518 54.6223ZM31.3875 47.1708C31.3736 47.2427 31.3649 47.3152 31.3523 47.387C31.3895 47.4535 31.4221 47.5214 31.4594 47.5865L31.3875 47.1708ZM47.3288 31.4364C47.261 31.3985 47.1911 31.3659 47.122 31.3293C47.0521 31.3433 46.9816 31.3579 46.9118 31.3712L47.3288 31.4364Z" fill="white"/>
</svg>
