<svg width="101" height="101" viewBox="0 0 101 101" fill="none" xmlns="http://www.w3.org/2000/svg">
<rect x="0.875" y="0.902344" width="100" height="100" rx="3" fill="#675DA9"/>
<path d="M67.1347 33.0871C66.0364 32.0774 61.5903 28.8446 51.6794 28.8003C51.6794 28.8003 39.9971 28.0918 34.3021 33.3173C31.1313 36.4881 30.0154 41.1203 29.9002 46.8773C29.7851 52.6254 29.6345 63.4043 40.0237 66.3271H40.0325L40.0237 70.7821C40.0237 70.7821 39.9617 72.5889 41.1485 72.952C42.5833 73.3949 43.4336 72.0221 44.8064 70.5429C45.5592 69.7281 46.5955 68.5413 47.3838 67.629C54.487 68.2224 59.9517 66.8585 60.5717 66.6548C62.0065 66.1853 70.1283 65.1491 71.448 54.3702C72.812 43.2814 70.7837 36.2578 67.1347 33.0871ZM68.3392 53.5908C67.2233 62.5894 60.6426 63.1563 59.4292 63.546C58.9155 63.7143 54.115 64.91 48.0746 64.5114C48.0746 64.5114 43.5753 69.9407 42.1759 71.3489C41.9545 71.5704 41.6976 71.6589 41.5294 71.6146C41.2902 71.5526 41.2194 71.2692 41.2282 70.8529C41.2282 70.2507 41.2636 63.4397 41.2636 63.4397C41.2548 63.4397 41.2548 63.4397 41.2636 63.4397C32.4687 61.0041 32.9824 51.8283 33.0799 47.0278C33.1773 42.2274 34.0807 38.2861 36.7643 35.6379C41.5736 31.2802 51.5022 31.9268 51.5022 31.9268C59.8809 31.9622 63.8931 34.4865 64.823 35.3279C67.9141 37.9849 69.4906 44.3176 68.3392 53.5908Z" fill="white"/>
<path d="M55.7628 47.1962C55.4705 47.1962 55.2225 46.9659 55.2048 46.6648C55.1074 44.7606 54.2128 43.8306 52.3883 43.7332C52.0783 43.7155 51.8392 43.4498 51.8569 43.1398C51.8746 42.8298 52.1403 42.5906 52.4503 42.6083C54.8594 42.7412 56.2056 44.1229 56.3296 46.6028C56.3473 46.9128 56.1082 47.1785 55.7982 47.1874C55.7805 47.1962 55.7716 47.1962 55.7628 47.1962Z" fill="white"/>
<path d="M58.6318 48.153H58.6229C58.3129 48.1442 58.065 47.8873 58.0738 47.5773C58.1181 45.6642 57.569 44.1143 56.3999 42.8389C55.2396 41.5635 53.6365 40.8726 51.5197 40.7221C51.2097 40.6955 50.9794 40.4298 51.006 40.1198C51.0326 39.8098 51.2983 39.5795 51.6083 39.6061C53.9996 39.7832 55.8862 40.6158 57.2324 42.086C58.5875 43.5651 59.2429 45.4162 59.1986 47.6039C59.1898 47.9139 58.9329 48.153 58.6318 48.153Z" fill="white"/>
<path d="M61.5729 49.3042C61.2629 49.3042 61.0149 49.0562 61.0149 48.7462C60.9884 45.3186 60.0052 42.7058 58.0036 40.7484C56.0285 38.8176 53.522 37.8345 50.5726 37.8079C50.2626 37.8079 50.0146 37.5511 50.0146 37.2411C50.0146 36.9311 50.2715 36.6831 50.5726 36.6831C53.8231 36.7097 56.5865 37.7991 58.7741 39.9425C60.9707 42.0858 62.0955 45.044 62.1309 48.7285C62.1398 49.0474 61.8918 49.3042 61.5729 49.3042C61.5818 49.3042 61.5818 49.3042 61.5729 49.3042Z" fill="white"/>
<path d="M52.5206 54.1308C52.5206 54.1308 53.3089 54.2016 53.734 53.6791L54.5577 52.6428C54.9563 52.1291 55.9217 51.8014 56.8605 52.324C57.3831 52.6163 58.3308 53.2008 58.9153 53.6348C59.5442 54.0954 60.8196 55.1582 60.8284 55.1671C61.4395 55.6808 61.5813 56.4336 61.165 57.2396C61.165 57.2396 61.165 57.2484 61.165 57.2573C60.7398 58.0101 60.1641 58.7187 59.4467 59.3741C59.4379 59.3741 59.4379 59.3829 59.429 59.3829C58.8356 59.8789 58.2511 60.1624 57.6842 60.2243C57.6134 60.2421 57.5336 60.2421 57.4274 60.2421C57.1794 60.2421 56.9314 60.2066 56.6834 60.1269L56.6657 60.1004C55.78 59.8524 54.3097 59.2324 51.8652 57.8773C50.271 57.0004 48.9513 56.1059 47.8265 55.2113C47.2331 54.7419 46.6308 54.2194 46.0108 53.5994C45.9931 53.5817 45.9665 53.5551 45.9488 53.5374C45.9311 53.5197 45.9045 53.4931 45.8868 53.4754C45.8691 53.4577 45.8425 53.4311 45.8248 53.4134C45.8071 53.3957 45.7805 53.3691 45.7628 53.3514C45.1517 52.7314 44.6203 52.1291 44.1508 51.5357C43.2563 50.4197 42.3617 49.0912 41.4849 47.497C40.1298 45.0436 39.5098 43.5733 39.2618 42.6965L39.2353 42.6788C39.1555 42.4308 39.1201 42.1828 39.1201 41.9348C39.1201 41.8285 39.1201 41.7488 39.1378 41.678C39.2087 41.1023 39.4921 40.5266 39.9792 39.9332C39.9792 39.9243 39.9881 39.9243 39.9881 39.9154C40.6435 39.1892 41.3521 38.6223 42.1049 38.1972C42.1049 38.1972 42.1138 38.1972 42.1226 38.1972C42.9197 37.7809 43.6726 37.9226 44.1951 38.5338C44.1951 38.5338 45.2668 39.818 45.7274 40.4469C46.1614 41.0403 46.7459 41.9791 47.0382 42.5017C47.5608 43.4405 47.2331 44.4059 46.7194 44.8045L45.6831 45.6282C45.1605 46.0533 45.2314 46.8416 45.2314 46.8416C45.2314 46.8416 46.7636 52.6694 52.5206 54.1308Z" fill="white"/>
</svg>
