<svg width="101" height="101" viewBox="0 0 101 101" fill="none" xmlns="http://www.w3.org/2000/svg">
<rect x="0.875" y="0.902344" width="100" height="100" rx="3" fill="#419FD9"/>
<path fill-rule="evenodd" clip-rule="evenodd" d="M61.7575 68.7289C64.2738 69.8298 65.2174 67.5232 65.2174 67.5232L71.875 34.0779C71.8226 31.8237 68.7821 33.1867 68.7821 33.1867L31.5099 47.8125C31.5099 47.8125 29.7276 48.4415 29.8848 49.5424C30.0421 50.6433 31.4575 51.1675 31.4575 51.1675L40.8411 54.3128C40.8411 54.3128 43.6719 63.5916 44.2485 65.3739C44.7727 67.1038 45.2445 67.1563 45.2445 67.1563C45.7688 67.366 46.2406 66.999 46.2406 66.999L52.3215 61.4947L61.7575 68.7289ZM63.3823 40.0015C63.3823 40.0015 64.6928 39.2152 64.6404 40.0015C64.6404 40.0015 64.8501 40.1063 64.1686 40.8402C63.5396 41.4693 48.7041 54.7845 46.712 56.5669C46.5548 56.6717 46.4499 56.829 46.4499 57.0387L45.8733 61.9664C45.7684 62.4906 45.0869 62.543 44.9297 62.0712L42.4658 53.9982C42.361 53.6837 42.4658 53.3167 42.7804 53.107L63.3823 40.0015Z" fill="white"/>
</svg>
