<svg width="101" height="101" viewBox="0 0 101 101" fill="none" xmlns="http://www.w3.org/2000/svg">
<rect x="0.875" y="0.902344" width="100" height="100" rx="3" fill="#0DC143"/>
<path d="M65.8096 35.9103C61.9186 31.9049 56.5399 29.7305 51.0467 29.7305C39.3736 29.7305 29.9894 39.2291 30.1039 50.7877C30.1039 54.4498 31.1339 57.9975 32.8505 61.2019L29.875 72.0738L40.9758 69.2128C44.0657 70.9294 47.499 71.7305 50.9322 71.7305C62.4908 71.7305 71.875 62.2318 71.875 50.6732C71.875 45.0656 69.7006 39.8013 65.8096 35.9103ZM51.0467 68.1828C47.9567 68.1828 44.8668 67.3817 42.2347 65.7795L41.548 65.4362L34.9104 67.1528L36.627 60.6297L36.1693 59.943C31.1339 51.8177 33.5371 41.0602 41.7769 36.0247C50.0167 30.9893 60.6597 33.3926 65.6952 41.6324C70.7306 49.8722 68.3273 60.5152 60.0875 65.5506C57.4554 67.2673 54.251 68.1828 51.0467 68.1828ZM61.1175 55.4798L59.8587 54.9076C59.8587 54.9076 58.0276 54.1065 56.8832 53.5343C56.7687 53.5343 56.6543 53.4198 56.5399 53.4198C56.1965 53.4198 55.9676 53.5343 55.7388 53.6487C55.7388 53.6487 55.6243 53.7632 54.0221 55.5942C53.9077 55.8231 53.6788 55.9376 53.4499 55.9376H53.3355C53.2211 55.9376 52.9922 55.8231 52.8777 55.7087L52.3055 55.4798C51.0467 54.9076 49.9022 54.2209 48.9867 53.3054C48.7578 53.0765 48.4145 52.8476 48.1856 52.6188C47.3845 51.8177 46.5834 50.9021 46.0112 49.8722L45.8968 49.6433C45.7824 49.5288 45.7824 49.4144 45.6679 49.1855C45.6679 48.9566 45.6679 48.7277 45.7824 48.6133C45.7824 48.6133 46.2401 48.0411 46.5834 47.6978C46.8123 47.4689 46.9268 47.1256 47.1557 46.8967C47.3845 46.5534 47.499 46.0956 47.3845 45.7523C47.2701 45.1801 45.8968 42.0901 45.5535 41.4035C45.3246 41.0602 45.0957 40.9457 44.7524 40.8313H44.4091C44.1802 40.8313 43.8369 40.8313 43.4935 40.8313C43.2646 40.8313 43.0358 40.9457 42.8069 40.9457L42.6924 41.0602C42.4636 41.1746 42.2347 41.4035 42.0058 41.5179C41.7769 41.7468 41.6625 41.9757 41.4336 42.2046C40.6325 43.2346 40.1747 44.4934 40.1747 45.7523C40.1747 46.6678 40.4036 47.5833 40.7469 48.3844L40.8614 48.7277C41.8913 50.9021 43.2646 52.8476 45.0957 54.5643L45.5535 55.022C45.8968 55.3653 46.2401 55.5942 46.469 55.9376C48.8723 57.9975 51.6189 59.4852 54.7088 60.2863C55.0521 60.4008 55.5099 60.4008 55.8532 60.5152C56.1965 60.5152 56.6543 60.5152 56.9976 60.5152C57.5698 60.5152 58.2565 60.2863 58.7142 60.0574C59.0576 59.8286 59.2864 59.8286 59.5153 59.5997L59.7442 59.3708C59.9731 59.1419 60.202 59.0275 60.4309 58.7986C60.6597 58.5697 60.8886 58.3408 61.0031 58.1119C61.2319 57.6542 61.3464 57.082 61.4608 56.5098C61.4608 56.2809 61.4608 55.9376 61.4608 55.7087C61.4608 55.7087 61.3464 55.5942 61.1175 55.4798Z" fill="white"/>
</svg>
