<svg width="20" height="21" viewBox="0 0 20 21" fill="none" xmlns="http://www.w3.org/2000/svg">
<path d="M15.0712 20.3535C14.0201 20.3535 12.9131 20.1024 11.7689 19.6186C10.6526 19.1442 9.52705 18.4931 8.42937 17.7024C7.341 16.9024 6.28984 16.0093 5.29449 15.0326C4.30844 14.0372 3.41542 12.9861 2.62472 11.907C1.82472 10.7907 1.18286 9.67445 0.727046 8.59538C0.243325 7.44189 0.00146484 6.32561 0.00146484 5.27445C0.00146484 4.54886 0.131697 3.86049 0.38286 3.21863C0.643325 2.55817 1.06193 1.94421 1.62937 1.41398C2.34565 0.707004 3.16426 0.353516 4.03867 0.353516C4.40147 0.353516 4.77356 0.437237 5.08984 0.586074C5.45263 0.753516 5.7596 1.00468 5.98286 1.33956L8.141 4.38142C8.33635 4.65119 8.48519 4.91165 8.58751 5.17212C8.70844 5.45119 8.77356 5.73026 8.77356 6.00003C8.77356 6.35352 8.67123 6.6977 8.47588 7.02328C8.33635 7.27445 8.1224 7.54421 7.85263 7.81398L7.22007 8.47445C7.22937 8.50235 7.23867 8.52096 7.24798 8.53956C7.3596 8.73491 7.58286 9.06979 8.01077 9.57212C8.46658 10.0931 8.89449 10.5675 9.3224 11.0047C9.87123 11.5442 10.327 11.9721 10.755 12.3256C11.2852 12.7721 11.6294 12.9954 11.834 13.0977L11.8154 13.1442L12.4945 12.4744C12.7829 12.1861 13.0619 11.9721 13.3317 11.8326C13.8433 11.5163 14.4945 11.4605 15.1457 11.7303C15.3875 11.8326 15.648 11.9721 15.927 12.1675L19.0154 14.3628C19.3596 14.5954 19.6108 14.8931 19.7596 15.2465C19.8991 15.6 19.9643 15.9256 19.9643 16.2512C19.9643 16.6977 19.8619 17.1442 19.6666 17.5628C19.4712 17.9814 19.2294 18.3442 18.9224 18.6791C18.3922 19.2651 17.8154 19.6837 17.1457 19.9535C16.5038 20.214 15.8061 20.3535 15.0712 20.3535ZM4.03867 1.74886C3.52705 1.74886 3.05263 1.97212 2.59681 2.41863C2.16891 2.81863 1.87123 3.25584 1.68519 3.73026C1.48984 4.21398 1.39681 4.72561 1.39681 5.27445C1.39681 6.13956 1.60147 7.0791 2.01077 8.04654C2.42937 9.03259 3.01542 10.0558 3.7596 11.0791C4.50379 12.1024 5.3503 13.0977 6.28054 14.0372C7.21077 14.9582 8.21542 15.814 9.24798 16.5675C10.2526 17.3024 11.2852 17.8977 12.3084 18.3256C13.8991 19.0047 15.3875 19.1628 16.6154 18.6512C17.0898 18.4558 17.5084 18.1582 17.8898 17.7303C18.1038 17.4977 18.2712 17.2465 18.4108 16.9489C18.5224 16.7163 18.5782 16.4744 18.5782 16.2326C18.5782 16.0837 18.5503 15.9349 18.4759 15.7675C18.448 15.7117 18.3922 15.6093 18.2154 15.4884L15.127 13.2931C14.941 13.1628 14.7736 13.0698 14.6154 13.0047C14.4108 12.921 14.327 12.8372 14.0108 13.0326C13.8247 13.1256 13.6573 13.2651 13.4712 13.4512L12.7643 14.1489C12.4015 14.5024 11.8433 14.5861 11.4154 14.4279L11.1643 14.3163C10.7829 14.1117 10.3363 13.7954 9.84333 13.3768C9.39681 12.9954 8.91309 12.5489 8.32705 11.9721C7.87123 11.507 7.41542 11.014 6.941 10.4651C6.50379 9.95352 6.18751 9.51631 5.99216 9.15352L5.88054 8.87445C5.82472 8.66049 5.80612 8.53956 5.80612 8.40933C5.80612 8.07445 5.92705 7.77677 6.15961 7.54421L6.85728 6.81863C7.04333 6.63259 7.18286 6.45584 7.27588 6.2977C7.3503 6.17677 7.37821 6.07445 7.37821 5.98142C7.37821 5.907 7.3503 5.79538 7.30379 5.68375C7.23868 5.53491 7.13635 5.36747 7.00612 5.19072L4.84798 2.13956C4.75495 2.00933 4.64333 1.91631 4.50379 1.85119C4.35495 1.78607 4.19681 1.74886 4.03867 1.74886ZM11.8154 13.1535L11.6666 13.7861L11.9177 13.1349C11.8712 13.1256 11.834 13.1349 11.8154 13.1535Z" fill="white"/>
<path d="M16.048 8.26054C15.6666 8.26054 15.3503 7.94426 15.3503 7.56286C15.3503 7.22798 15.0154 6.53031 14.4573 5.93496C13.9084 5.34891 13.3038 5.00472 12.7922 5.00472C12.4108 5.00472 12.0945 4.68844 12.0945 4.30705C12.0945 3.92565 12.4108 3.60938 12.7922 3.60938C13.6945 3.60938 14.6433 4.0931 15.4712 4.97682C16.2433 5.80472 16.7456 6.81868 16.7456 7.56286C16.7456 7.94426 16.4294 8.26054 16.048 8.26054Z" fill="white"/>
<path d="M19.3038 8.26049C18.9224 8.26049 18.6061 7.94421 18.6061 7.56282C18.6061 4.35352 16.0015 1.74886 12.7922 1.74886C12.4108 1.74886 12.0945 1.43259 12.0945 1.05119C12.0945 0.669795 12.4108 0.353516 12.7922 0.353516C16.7642 0.353516 20.0015 3.59072 20.0015 7.56282C20.0015 7.94421 19.6852 8.26049 19.3038 8.26049Z" fill="white"/>
</svg>
