<svg width="21" height="21" viewBox="0 0 21 21" fill="none" xmlns="http://www.w3.org/2000/svg">
<path d="M15.5722 20.4512C14.521 20.4512 13.4141 20.2 12.2699 19.7163C11.1536 19.2419 10.028 18.5907 8.93035 17.8C7.84198 17 6.79081 16.107 5.79546 15.1302C4.80942 14.1349 3.9164 13.0837 3.1257 12.0047C2.3257 10.8884 1.68384 9.7721 1.22802 8.69303C0.744302 7.53954 0.502441 6.42326 0.502441 5.3721C0.502441 4.64652 0.632674 3.95815 0.883837 3.31629C1.1443 2.65582 1.56291 2.04187 2.13035 1.51164C2.84663 0.80466 3.66523 0.451172 4.53965 0.451172C4.90244 0.451172 5.27453 0.534893 5.59081 0.68373C5.9536 0.851172 6.26058 1.10233 6.48384 1.43722L8.64198 4.47908C8.83733 4.74885 8.98616 5.00931 9.08849 5.26978C9.20942 5.54885 9.27454 5.82792 9.27454 6.09768C9.27454 6.45117 9.17221 6.79536 8.97686 7.12094C8.83733 7.3721 8.62337 7.64187 8.3536 7.91164L7.72105 8.5721C7.73035 8.60001 7.73965 8.61861 7.74895 8.63722C7.86058 8.83257 8.08384 9.16745 8.51174 9.66978C8.96756 10.1907 9.39547 10.6651 9.82337 11.1023C10.3722 11.6419 10.828 12.0698 11.2559 12.4233C11.7862 12.8698 12.1304 13.093 12.335 13.1954L12.3164 13.2419L12.9955 12.5721C13.2838 12.2837 13.5629 12.0698 13.8327 11.9302C14.3443 11.614 14.9955 11.5581 15.6466 11.8279C15.8885 11.9302 16.149 12.0698 16.428 12.2651L19.5164 14.4605C19.8606 14.693 20.1117 14.9907 20.2606 15.3442C20.4001 15.6977 20.4652 16.0233 20.4652 16.3488C20.4652 16.7954 20.3629 17.2419 20.1676 17.6605C19.9722 18.0791 19.7304 18.4419 19.4234 18.7768C18.8931 19.3628 18.3164 19.7814 17.6466 20.0512C17.0048 20.3116 16.3071 20.4512 15.5722 20.4512ZM4.53965 1.84652C4.02802 1.84652 3.5536 2.06978 3.09779 2.51629C2.66988 2.91629 2.37221 3.3535 2.18616 3.82792C1.99081 4.31164 1.89779 4.82327 1.89779 5.3721C1.89779 6.23722 2.10244 7.17675 2.51174 8.1442C2.93035 9.13024 3.5164 10.1535 4.26058 11.1768C5.00477 12.2 5.85128 13.1954 6.78151 14.1349C7.71174 15.0558 8.7164 15.9116 9.74895 16.6651C10.7536 17.4 11.7862 17.9954 12.8094 18.4233C14.4001 19.1023 15.8885 19.2605 17.1164 18.7488C17.5908 18.5535 18.0094 18.2558 18.3908 17.8279C18.6048 17.5954 18.7722 17.3442 18.9117 17.0465C19.0234 16.814 19.0792 16.5721 19.0792 16.3302C19.0792 16.1814 19.0513 16.0326 18.9769 15.8651C18.949 15.8093 18.8931 15.707 18.7164 15.5861L15.628 13.3907C15.442 13.2605 15.2745 13.1675 15.1164 13.1023C14.9117 13.0186 14.828 12.9349 14.5117 13.1302C14.3257 13.2233 14.1583 13.3628 13.9722 13.5488L13.2652 14.2465C12.9024 14.6 12.3443 14.6837 11.9164 14.5256L11.6652 14.414C11.2838 14.2093 10.8373 13.893 10.3443 13.4744C9.89779 13.093 9.41407 12.6465 8.82802 12.0698C8.37221 11.6047 7.9164 11.1116 7.44198 10.5628C7.00477 10.0512 6.68849 9.61396 6.49314 9.25117L6.38151 8.9721C6.3257 8.75815 6.30709 8.63722 6.30709 8.50699C6.30709 8.1721 6.42802 7.87443 6.66058 7.64187L7.35826 6.91629C7.5443 6.73024 7.68384 6.5535 7.77686 6.39536C7.85128 6.27443 7.87919 6.1721 7.87919 6.07908C7.87919 6.00466 7.85128 5.89303 7.80477 5.7814C7.73965 5.63257 7.63733 5.46513 7.50709 5.28838L5.34895 2.23722C5.25593 2.10699 5.1443 2.01396 5.00477 1.94885C4.85593 1.88373 4.69779 1.84652 4.53965 1.84652ZM12.3164 13.2512L12.1676 13.8837L12.4187 13.2326C12.3722 13.2233 12.335 13.2326 12.3164 13.2512Z" fill="#757575"/>
<path d="M16.5489 8.35819C16.1676 8.35819 15.8513 8.04191 15.8513 7.66052C15.8513 7.32564 15.5164 6.62796 14.9583 6.03261C14.4094 5.44657 13.8048 5.10238 13.2931 5.10238C12.9117 5.10238 12.5955 4.7861 12.5955 4.40471C12.5955 4.02331 12.9117 3.70703 13.2931 3.70703C14.1955 3.70703 15.1443 4.19075 15.9722 5.07447C16.7443 5.90238 17.2466 6.91633 17.2466 7.66052C17.2466 8.04191 16.9303 8.35819 16.5489 8.35819Z" fill="#757575"/>
<path d="M19.8048 8.35815C19.4234 8.35815 19.1071 8.04187 19.1071 7.66047C19.1071 4.45117 16.5024 1.84652 13.2931 1.84652C12.9117 1.84652 12.5955 1.53024 12.5955 1.14885C12.5955 0.767451 12.9117 0.451172 13.2931 0.451172C17.2652 0.451172 20.5024 3.68838 20.5024 7.66047C20.5024 8.04187 20.1862 8.35815 19.8048 8.35815Z" fill="#757575"/>
</svg>
