<svg width="21" height="21" viewBox="0 0 21 21" fill="none" xmlns="http://www.w3.org/2000/svg">
<path d="M10.1254 19.7445C5.79206 19.7445 2.27539 16.2195 2.27539 11.8945C2.27539 7.56947 5.79206 4.03613 10.1254 4.03613C11.0171 4.03613 11.8837 4.16113 12.7171 4.41947C13.0504 4.51947 13.2337 4.86947 13.1337 5.2028C13.0337 5.53613 12.6837 5.71947 12.3504 5.61947C11.6421 5.4028 10.8921 5.28613 10.1254 5.28613C6.48372 5.28613 3.52539 8.24447 3.52539 11.8861C3.52539 15.5278 6.48372 18.4861 10.1254 18.4861C13.7671 18.4861 16.7254 15.5278 16.7254 11.8861C16.7254 10.5695 16.3421 9.3028 15.6171 8.21947C15.4254 7.93613 15.5004 7.54447 15.7921 7.3528C16.0754 7.16113 16.4671 7.23613 16.6587 7.5278C17.5254 8.81947 17.9837 10.3278 17.9837 11.8945C17.9754 16.2195 14.4587 19.7445 10.1254 19.7445Z" fill="#757575"/>
<path d="M13.567 5.84431C13.392 5.84431 13.217 5.76931 13.092 5.62765L10.6837 2.86098C10.4587 2.60265 10.4837 2.20265 10.742 1.97765C11.0004 1.75265 11.4004 1.77765 11.6254 2.03598L14.0337 4.80265C14.2587 5.06098 14.2337 5.46098 13.9754 5.68598C13.867 5.79431 13.717 5.84431 13.567 5.84431Z" fill="#757575"/>
<path d="M10.7579 7.89447C10.5662 7.89447 10.3745 7.8028 10.2495 7.63614C10.0495 7.36114 10.1079 6.96947 10.3829 6.76114L13.1912 4.71114C13.4662 4.5028 13.8579 4.56947 14.0662 4.84447C14.2745 5.11947 14.2079 5.51114 13.9329 5.71947L11.1245 7.7778C11.0162 7.86114 10.8912 7.89447 10.7579 7.89447Z" fill="#757575"/>
</svg>