<svg width="33" height="33" viewBox="0 0 33 33" fill="none" xmlns="http://www.w3.org/2000/svg">
<path d="M8.98187 21.1655C7.13118 21.1655 5.62451 22.6722 5.62451 24.5229C5.62451 26.3736 7.13118 27.8802 8.98187 27.8802C10.8326 27.8802 12.3392 26.3736 12.3392 24.5229C12.3392 22.6722 10.8326 21.1655 8.98187 21.1655ZM8.98187 26.8609C7.6918 26.8609 6.64382 25.813 6.64382 24.5229C6.64382 23.2328 7.6918 22.1848 8.98187 22.1848C10.2719 22.1848 11.3199 23.2328 11.3199 24.5229C11.3199 25.813 10.2719 26.8609 8.98187 26.8609Z" fill="#FF0000"/>
<path d="M8.98187 23.1216C8.20783 23.1216 7.58032 23.7491 7.58032 24.5231C7.58032 25.2972 8.20783 25.9247 8.98187 25.9247C9.75591 25.9247 10.3834 25.2972 10.3834 24.5231C10.3834 23.7491 9.75591 23.1216 8.98187 23.1216Z" fill="#FF0000"/>
<path d="M26.1508 21.1655C24.3001 21.1655 22.7935 22.6722 22.7935 24.5229C22.7935 26.3736 24.3001 27.8802 26.1508 27.8802C28.0015 27.8802 29.5082 26.3736 29.5082 24.5229C29.5082 22.6722 28.0015 21.1655 26.1508 21.1655ZM26.1508 26.8609C24.8607 26.8609 23.8128 25.813 23.8128 24.5229C23.8128 23.2328 24.8607 22.1848 26.1508 22.1848C27.4409 22.1848 28.4889 23.2328 28.4889 24.5229C28.4889 25.813 27.4409 26.8609 26.1508 26.8609Z" fill="#FF0000"/>
<path d="M26.1508 23.1216C25.3768 23.1216 24.7493 23.7491 24.7493 24.5231C24.7493 25.2972 25.3768 25.9247 26.1508 25.9247C26.9249 25.9247 27.5524 25.2972 27.5524 24.5231C27.5524 23.7491 26.9249 23.1216 26.1508 23.1216Z" fill="#FF0000"/>
<path d="M32.5565 14.4637L29.7406 13.2852C29.3807 12.6449 28.0173 10.2782 26.9471 9.34808C26.8547 9.26844 26.7368 9.22385 26.6126 9.22385H22.4366V6.43348C22.4366 6.15317 22.2073 5.92383 21.927 5.92383H1.38465C1.10434 5.92383 0.875 6.15317 0.875 6.43348V18.8914C0.875 19.1717 1.10434 19.401 1.38465 19.401H2.27018V23.1247C2.27018 23.405 2.49953 23.6344 2.77984 23.6344H5.02869C5.24529 23.6344 5.43642 23.4974 5.50968 23.2967C6.03208 21.8283 7.42726 20.844 8.98489 20.844C10.5425 20.844 11.9345 21.8315 12.4569 23.2967C12.5302 23.5006 12.7213 23.6344 12.9379 23.6344H22.1977C22.4143 23.6344 22.6054 23.4974 22.6787 23.2967C23.2011 21.8283 24.5963 20.844 26.1539 20.844C27.7116 20.844 29.1036 21.8315 29.6291 23.2967C29.7024 23.5006 29.8935 23.6344 30.1101 23.6344H32.3653C32.6457 23.6344 32.875 23.405 32.875 23.1247V14.9384C32.875 14.7313 32.7508 14.5466 32.5628 14.4669L32.5565 14.4637ZM22.443 10.2432H26.4119C27.4822 11.2848 28.9188 13.9031 28.9315 13.9318C28.9857 14.0337 29.0749 14.1134 29.1832 14.1579L31.8493 15.276V18.4391H22.443V10.2463V10.2432ZM1.89431 8.4307H3.18438V16.9292H1.89431V8.4307ZM3.84056 8.4307H5.21026V16.9292H3.84056V8.4307ZM5.86644 8.4307H7.23614V16.9292H5.86644V8.4307ZM7.89232 8.4307H9.26202V16.9292H7.89232V8.4307ZM9.9182 8.4307H11.2879V16.9292H9.9182V8.4307ZM11.9441 8.4307H13.3138V16.9292H11.9441V8.4307ZM13.97 8.4307H15.3397V16.9292H13.97V8.4307ZM15.9958 8.4307H17.3655V16.9292H15.9958V8.4307ZM18.0217 8.4307H19.3914V16.9292H18.0217V8.4307ZM20.0476 8.4307H21.4077V16.9292H20.0476V8.4307ZM1.88475 6.93995H21.4077V7.70125H1.88475V6.93995ZM1.88475 18.3785V17.6586H21.4077V18.3785H1.88475ZM31.8398 22.6119H30.4414C29.6897 20.9268 28.0046 19.8183 26.1412 19.8183C24.2777 19.8183 22.5927 20.9268 21.841 22.6119H13.2692C12.5174 20.9268 10.8324 19.8183 8.96897 19.8183C7.10554 19.8183 5.42049 20.9268 4.66875 22.6119H3.27357V19.4552H31.8334V22.6119H31.8398Z" fill="#FF0000"/>
<path d="M25.7526 11.1221H23.0642V14.3074H28.0238L27.9983 14.2628C27.4441 13.3295 26.4757 11.9025 25.7526 11.1221Z" fill="#FF0000"/>
<path d="M25.4023 15.5181H23.7874V16.1042H25.4023V15.5181Z" fill="#FF0000"/>
</svg>
