<svg width="33" height="34" viewBox="0 0 33 34" fill="none" xmlns="http://www.w3.org/2000/svg">
<path d="M20.4795 3.29055L20.4795 3.2906C22.567 4.70584 25.8326 6.46542 29.808 6.52434C29.8083 6.52434 29.8086 6.52435 29.809 6.52435L29.8068 6.67249C29.9905 6.67249 30.1683 6.85027 30.1683 7.02805L20.4795 3.29055ZM20.4795 3.29055C19.3507 2.5263 18.4731 1.74718 17.8702 1.15904C17.5689 0.865037 17.3362 0.618772 17.1748 0.445565C17.1491 0.418019 17.125 0.39209 17.1027 0.368003C17.0553 0.317019 17.0156 0.274291 16.9848 0.241965C16.9622 0.218327 16.9419 0.197568 16.9252 0.18216C16.9188 0.176228 16.911 0.169224 16.9025 0.162524M20.4795 3.29055L16.9025 0.162524M3.19224 6.52434C3.05614 6.52473 2.93088 6.59118 2.84244 6.6777C2.75542 6.76284 2.68638 6.88481 2.68389 7.02047L1.96747 14.7768C1.96746 14.7769 1.96745 14.777 1.96744 14.7771C1.48249 19.8075 3.72219 24.7771 7.90126 27.7707L16.1649 33.6902C16.3384 33.8542 16.6026 33.8542 16.7761 33.6902L25.0389 27.7713C25.039 27.7712 25.0392 27.7711 25.0393 27.771C29.2781 24.7773 31.5179 19.8073 31.0328 14.7768L30.3163 7.02048L3.19344 6.67249M3.19224 6.52434C3.19264 6.52434 3.19304 6.52434 3.19344 6.52434V6.67249M3.19224 6.52434C3.19191 6.52434 3.19159 6.52435 3.19126 6.52435L3.19344 6.67249M3.19224 6.52434C7.1682 6.46542 10.493 4.70525 12.5191 3.29173L12.5207 3.29054L12.5208 3.29055C13.6501 2.52592 14.5428 1.74647 15.1529 1.15842C15.4578 0.864462 15.692 0.618541 15.8496 0.446501C15.9284 0.360487 15.988 0.292959 16.0277 0.247151C16.0476 0.224248 16.0625 0.206777 16.0724 0.195142L16.0833 0.182117L16.0859 0.178983L16.0865 0.178277L16.0866 0.178151L16.2009 0.272493M3.19344 6.67249C7.21122 6.61323 10.5653 4.83545 12.6038 3.41323C14.8794 1.87249 16.2009 0.272493 16.2009 0.272493M16.2009 0.272493L16.0867 0.178128M16.2009 0.272493C16.3786 0.0947157 16.6809 0.0947157 16.7994 0.272493C16.8118 0.272493 16.877 0.342656 16.9931 0.467744C17.4317 0.939998 18.5974 2.19513 20.3964 3.41323L16.0867 0.178128M16.0867 0.178128L16.0956 0.167262L16.0961 0.167737C16.2143 0.0495884 16.3726 -0.00898799 16.5223 -0.00898799C16.661 -0.00898799 16.8076 0.0424271 16.9025 0.162524M16.0867 0.178128L16.9025 0.162524M24.1235 27.1466H24.1341L16.556 32.6234L8.60706 26.9372L8.60697 26.9371C4.7511 24.1829 2.67617 19.5528 3.09208 14.9233C3.09209 14.9231 3.0921 14.9229 3.09212 14.9228L3.7968 7.58473C7.85167 7.37525 11.126 5.66237 13.2157 4.18677C14.8592 3.06482 15.9757 1.94283 16.5554 1.31592C16.5725 1.33293 16.59 1.35041 16.608 1.36836C17.1976 1.95696 18.2895 3.04698 19.8836 4.18564L19.8843 4.1861C21.974 5.66185 25.2487 7.37522 29.3042 7.58473L30.0089 14.9228C30.0089 14.923 30.0089 14.9233 30.0089 14.9235C30.4246 19.5513 28.2919 24.1232 24.4931 26.8785L24.1235 27.1466Z" fill="#FF0000" stroke="#FF0000" stroke-width="0.296296"/>
<path d="M22.1306 14.1062C21.9315 14.1062 21.8318 14.2058 21.7322 14.3054H21.7223L17.0911 18.6876C16.7923 18.8868 16.384 18.8868 16.1848 18.6876L15.378 17.8908C15.1789 17.6916 14.7705 17.6916 14.5713 17.8908C14.3721 18.09 14.3721 18.4884 14.5713 18.6876L16.6827 20.7791L22.529 15.0026C22.8377 14.7038 22.6386 14.1062 22.1306 14.1062Z" fill="#FF0000"/>
<path fill-rule="evenodd" clip-rule="evenodd" d="M27.5313 9.22044C27.5313 9.04266 27.3535 8.86489 27.1698 8.86489C23.9935 8.80563 21.3565 7.44266 19.7387 6.25747C18.3861 5.32314 17.4779 4.3888 17.0816 3.98116C16.9501 3.84586 16.875 3.76859 16.8587 3.76859C16.6809 3.59081 16.438 3.59081 16.2602 3.76859C16.2582 3.77054 16.2519 3.77775 16.2412 3.78988C15.9265 4.14637 11.8634 8.75027 5.94908 8.86489C5.7713 8.86489 5.58759 9.04266 5.58759 9.22044L4.98907 15.4427C4.62759 19.4723 6.42908 23.4427 9.72389 25.813L16.3195 30.5538C16.438 30.6723 16.6217 30.6723 16.7402 30.5538L23.3357 25.813C26.6306 23.4427 28.432 19.4723 28.0706 15.5019L27.5313 9.22044ZM13.8602 6.90933C15.1817 5.96118 16.1357 5.07229 16.5565 4.59821C16.9772 5.07229 17.9372 5.96118 19.2528 6.90933C20.9298 8.09451 23.5668 9.45747 26.8083 9.63525L26.9269 10.7612H6.18612L6.30462 9.63525C9.54018 9.45747 12.1772 8.09451 13.8602 6.90933ZM16.5624 29.7834L12.7876 27.0575H20.4024L16.5683 29.7834H16.5624ZM21.3565 26.2871L22.915 25.2204H22.9209C26.038 22.9686 27.715 19.2945 27.235 15.5019L26.8735 11.4723H6.06759L5.70612 15.5019C5.35056 19.2353 7.08685 22.9686 10.1446 25.1612L11.7032 26.2871H21.3565Z" fill="#FF0000"/>
<path d="M22.1306 14.1062C21.9315 14.1062 21.8318 14.2058 21.7322 14.3054H21.7223L17.0911 18.6876C16.7923 18.8868 16.384 18.8868 16.1848 18.6876L15.378 17.8908C15.1789 17.6916 14.7705 17.6916 14.5713 17.8908C14.3721 18.09 14.3721 18.4884 14.5713 18.6876L16.6827 20.7791L22.529 15.0026C22.8377 14.7038 22.6386 14.1062 22.1306 14.1062Z" stroke="#FF0000" stroke-width="0.592593"/>
<path fill-rule="evenodd" clip-rule="evenodd" d="M27.5313 9.22044C27.5313 9.04266 27.3535 8.86489 27.1698 8.86489C23.9935 8.80563 21.3565 7.44266 19.7387 6.25747C18.3861 5.32314 17.4779 4.3888 17.0816 3.98116C16.9501 3.84586 16.875 3.76859 16.8587 3.76859C16.6809 3.59081 16.438 3.59081 16.2602 3.76859C16.2582 3.77054 16.2519 3.77775 16.2412 3.78988C15.9265 4.14637 11.8634 8.75027 5.94908 8.86489C5.7713 8.86489 5.58759 9.04266 5.58759 9.22044L4.98907 15.4427C4.62759 19.4723 6.42908 23.4427 9.72389 25.813L16.3195 30.5538C16.438 30.6723 16.6217 30.6723 16.7402 30.5538L23.3357 25.813C26.6306 23.4427 28.432 19.4723 28.0706 15.5019L27.5313 9.22044ZM13.8602 6.90933C15.1817 5.96118 16.1357 5.07229 16.5565 4.59821C16.9772 5.07229 17.9372 5.96118 19.2528 6.90933C20.9298 8.09451 23.5668 9.45747 26.8083 9.63525L26.9269 10.7612H6.18612L6.30462 9.63525C9.54018 9.45747 12.1772 8.09451 13.8602 6.90933ZM16.5624 29.7834L12.7876 27.0575H20.4024L16.5683 29.7834H16.5624ZM21.3565 26.2871L22.915 25.2204H22.9209C26.038 22.9686 27.715 19.2945 27.235 15.5019L26.8735 11.4723H6.06759L5.70612 15.5019C5.35056 19.2353 7.08685 22.9686 10.1446 25.1612L11.7032 26.2871H21.3565Z" stroke="#FF0000" stroke-width="0.592593"/>
</svg>
