<svg width="33" height="33" viewBox="0 0 33 33" fill="none" xmlns="http://www.w3.org/2000/svg">
<path d="M11.8665 0.993965C11.2924 1.14056 10.7671 1.44596 10.3334 1.87352C9.86921 2.33773 9.60045 2.83248 9.45386 3.48604L9.35002 3.93804L8.85527 4.24344C8.29333 4.58549 7.67642 5.16575 7.36491 5.64218L7.16335 5.9598L4.13376 5.97812L1.10418 5.99645L0.988123 6.14304C0.87207 6.28352 0.87207 6.58282 0.87207 19.4708C0.87207 32.5786 0.87207 32.658 0.994231 32.7802C1.11639 32.9023 1.1958 32.9023 12.7766 32.9023H24.443L24.5651 32.7435C24.6751 32.603 24.6934 32.4931 24.6934 31.9128C24.6934 31.2898 24.6873 31.241 24.5407 31.1005C24.3452 30.8989 24.0643 30.8989 23.8688 31.1005C23.7406 31.2226 23.7161 31.3081 23.7161 31.5891V31.9251H12.7827H1.84936V19.4341V6.94319H4.29868H6.748L6.71746 7.07757C6.61362 7.49291 6.55254 8.01821 6.53422 8.49463C6.51589 9.35587 5.78293 9.26425 12.7766 9.26425H18.7503L18.8786 9.12376C18.9885 9.00771 19.0129 8.90998 19.0129 8.58014C19.0129 8.20756 18.8786 7.26692 18.793 7.04092C18.7564 6.9493 18.9702 6.94319 21.2363 6.94319H23.7161V8.71452V10.492L23.8688 10.6386C24.0643 10.8401 24.3452 10.8401 24.5407 10.6386L24.6934 10.492V8.44577C24.6934 6.28352 24.6812 6.15525 24.4063 6.03309C24.3086 5.98423 23.3374 5.96591 21.3157 5.96591L18.3716 5.9598L18.1273 5.59332C17.7974 5.09246 17.1256 4.48165 16.588 4.18236C16.2032 3.97469 16.1422 3.91361 16.1422 3.77312C16.1422 3.6815 16.0994 3.4555 16.0444 3.27226C15.7207 2.17282 14.7923 1.28715 13.6623 0.993965C13.1981 0.871803 12.3185 0.871803 11.8665 0.993965ZM13.8333 2.09952C14.6335 2.47211 15.0855 3.11345 15.1588 3.98079C15.1893 4.25566 15.226 4.51219 15.2504 4.55495C15.2748 4.5916 15.5436 4.75041 15.8429 4.897C17.0584 5.51391 17.8219 6.59503 18.0051 7.99377L18.0418 8.28696H12.7888H7.52983V8.11593C7.52983 7.81664 7.76804 6.9493 7.95128 6.58893C8.3422 5.81321 8.94079 5.25737 9.82645 4.83592C10.3151 4.60381 10.309 4.61603 10.364 3.95636C10.4434 3.0707 11.0419 2.32552 11.9459 1.98957C12.1964 1.89795 12.3857 1.87352 12.8438 1.89185C13.3447 1.90406 13.4791 1.9346 13.8333 2.09952Z" fill="#FF0000"/>
<path d="M12.1656 2.8754C11.0723 3.26632 10.5653 4.5429 11.1089 5.53851C11.6892 6.61352 13.1002 6.86395 14.0469 6.0638C14.1569 5.97218 14.334 5.71564 14.4439 5.48964C14.615 5.14149 14.6455 5.01932 14.6394 4.65284C14.6333 4.07258 14.4561 3.67556 14.0286 3.28464C13.8453 3.11362 13.5766 2.94259 13.4178 2.88762C13.0696 2.77157 12.471 2.76546 12.1656 2.8754ZM13.2101 3.87712C13.5094 4.03593 13.7232 4.4696 13.6682 4.80554C13.6132 5.12316 13.3139 5.44689 12.9902 5.5324C12.2511 5.73396 11.622 4.95214 11.9763 4.25582C12.1962 3.80993 12.752 3.63891 13.2101 3.87712Z" fill="#FF0000"/>
<path d="M18.9211 13.9247C15.7144 15.6349 14.3768 16.3801 14.3218 16.4779C14.2729 16.5756 14.2485 16.8993 14.2485 17.449C14.2546 17.901 14.2546 19.0616 14.2485 20.0205V21.7674L13.8087 21.8041C13.2468 21.8468 12.5016 22.085 11.9885 22.3782C11.4999 22.6653 10.5653 23.5876 10.2844 24.0579C10.1744 24.2534 9.99729 24.6504 9.88735 24.9436C9.70411 25.4567 9.698 25.5177 9.698 26.4278C9.698 27.4845 9.75908 27.7655 10.15 28.5595C10.6997 29.6834 11.8908 30.6546 13.1185 30.9844C13.6377 31.1188 14.6028 31.1616 15.128 31.07C16.7345 30.789 18.066 29.7079 18.689 28.1686C18.799 27.8999 18.9089 27.6861 18.9395 27.6922C18.9639 27.6983 19.9595 28.3152 21.1506 29.0726C22.3416 29.8239 23.38 30.4591 23.4533 30.4836C23.6182 30.5386 23.3983 30.6485 28.5413 27.9121C30.844 26.6844 32.7619 25.6399 32.8047 25.5849C32.8597 25.5116 32.878 24.516 32.878 21.0772C32.878 16.9665 32.8719 16.6611 32.7742 16.545C32.6337 16.3862 23.7953 11.567 23.5938 11.5426C23.4838 11.5242 22.1217 12.2206 18.9211 13.9247ZM27.7167 14.8531C29.6652 15.9159 31.2777 16.8077 31.3021 16.826C31.3266 16.8504 30.9051 17.1131 30.3615 17.4124C29.3903 17.9438 29.372 17.9499 29.1887 17.8583C29.0849 17.8094 28.3397 17.4063 27.5335 16.9604C26.7272 16.5206 25.0597 15.6044 23.8259 14.9325C22.586 14.2606 21.5781 13.6926 21.5781 13.6682C21.5781 13.6498 22.024 13.3933 22.5676 13.1001L23.5632 12.5687L23.8686 12.7458C24.0336 12.8375 25.7682 13.7903 27.7167 14.8531ZM21.9874 15.0425C22.8181 15.5006 23.6549 15.9587 23.8381 16.0564C24.0213 16.1541 24.2046 16.258 24.2351 16.2885C24.2718 16.3129 24.5039 16.4412 24.7543 16.5756C25.5361 16.997 28.0649 18.3652 28.468 18.5912L28.8467 18.805V19.9839V21.1688L28.297 21.4742C27.9977 21.6453 27.735 21.7857 27.7167 21.7857C27.6984 21.7857 27.6862 21.2666 27.6862 20.6374C27.6862 19.5197 27.6801 19.483 27.5518 19.3608C27.4724 19.2937 26.7394 18.8722 25.9148 18.4263C25.0902 17.9804 24.2107 17.504 23.9603 17.3635C23.7098 17.223 23.2945 17.0031 23.0441 16.8688C22.7936 16.7405 22.5188 16.5878 22.4333 16.5328C22.3477 16.4717 22.1462 16.3557 21.9751 16.2763C21.7186 16.148 19.3853 14.8959 19.3304 14.8531C19.3182 14.8409 20.3993 14.2301 20.4604 14.2118C20.4665 14.2118 21.1506 14.5844 21.9874 15.0425ZM19.367 15.9892C19.929 16.3007 20.552 16.6367 20.7535 16.7466C20.9551 16.8566 21.5476 17.1803 22.0668 17.4612C22.586 17.7422 23.722 18.3591 24.5833 18.8294C25.4445 19.2937 26.1347 19.6968 26.1103 19.7151C26.0614 19.764 23.5938 21.1139 23.5571 21.1139C23.5449 21.1139 22.8242 20.7107 21.9629 20.2221C21.0956 19.7273 19.9595 19.086 19.4403 18.7928C18.0904 18.0354 17.5835 17.7483 16.8139 17.2963C16.6306 17.1864 16.3313 17.0215 16.1603 16.9298C15.9832 16.8321 15.8366 16.7344 15.8366 16.71C15.8366 16.6794 15.9282 16.6183 16.0381 16.5695C16.142 16.5267 16.6734 16.2519 17.2109 15.9587C17.7484 15.6716 18.2248 15.4334 18.2676 15.4334C18.3103 15.4334 18.8051 15.6838 19.367 15.9892ZM16.6917 18.3713C17.046 18.5668 18.6096 19.4525 20.1733 20.332L23.0135 21.9445L23.0318 25.5239L23.0441 29.1093L21.0467 27.8449L19.0433 26.5744L19.0005 26.0675C18.9089 24.9436 18.463 23.9846 17.669 23.1845C17.0582 22.5676 16.5085 22.2194 15.7633 21.9873L15.2258 21.8163V20.0144C15.2258 19.0249 15.2441 18.0721 15.2624 17.901L15.2991 17.5834L15.6778 17.7972C15.8793 17.9194 16.3374 18.1759 16.6917 18.3713ZM31.9007 21.3521V25.0108L29.2315 26.434C24.7971 28.7917 24.0702 29.1765 24.0458 29.1765C24.0336 29.1765 24.0213 27.5578 24.0213 25.5849V21.9934L25.3285 21.2788C26.0492 20.8879 26.6539 20.5641 26.6722 20.5641C26.6906 20.5641 26.7089 21.0467 26.7089 21.633C26.7089 22.2805 26.7333 22.7569 26.7761 22.8424C26.8433 22.9951 27.0631 23.1295 27.2403 23.1295C27.3685 23.1295 29.653 21.8651 29.7507 21.743C29.8057 21.6697 29.824 21.2666 29.824 20.2465V18.8539L29.9889 18.75C30.1294 18.6584 31.8396 17.7117 31.8885 17.6995C31.8946 17.6934 31.9007 19.3364 31.9007 21.3521ZM15.4762 22.9218C16.0687 23.1051 16.5634 23.4288 17.0582 23.9602C18.4019 25.3956 18.3653 27.6189 16.9727 29.0238C16.2397 29.7628 15.5373 30.0866 14.5233 30.1354C13.7965 30.1782 13.3506 30.0805 12.6604 29.7445C12.0007 29.4269 11.3472 28.7611 11.0173 28.0831C10.6997 27.4173 10.6203 27.0386 10.6631 26.2446C10.6997 25.4628 10.8463 25.0047 11.2678 24.3755C12.1901 22.9951 13.8576 22.421 15.4762 22.9218Z" fill="#FF0000"/>
<path d="M15.5191 25.4629C14.9999 25.9454 14.2975 26.5868 13.9615 26.8983L13.3507 27.4602L12.8254 26.7089C12.3124 25.9821 12.2024 25.8843 11.9092 25.8782C11.7382 25.8782 11.5 26.1531 11.5 26.3547C11.5 26.4829 11.7016 26.825 12.233 27.5824C13.0026 28.6696 13.1125 28.7734 13.4301 28.6513C13.5767 28.5963 16.759 25.7011 17.0339 25.3713C17.211 25.1575 17.2171 24.9681 17.0522 24.7544C16.9545 24.6322 16.8751 24.5955 16.6979 24.5955C16.4842 24.5955 16.3864 24.6627 15.5191 25.4629Z" fill="#FF0000"/>
<path d="M3.85875 11.8233L3.71216 11.9394V13.9306C3.71216 15.9157 3.71216 15.9157 3.85264 16.0562C3.98702 16.1967 4.00534 16.1967 5.74613 16.2089C7.548 16.2211 7.78011 16.1967 7.89616 15.9768C7.93281 15.9157 7.95724 15.0483 7.95724 13.9245C7.95724 12.0493 7.95114 11.9699 7.83508 11.8416C7.71292 11.7072 7.68238 11.7072 5.85608 11.7072C4.1214 11.7072 3.99313 11.7134 3.85875 11.8233ZM6.96774 13.9367L6.94942 15.1888L5.81943 15.201L4.68944 15.2194L4.67112 13.9489L4.6589 12.6845H5.81943H6.97996L6.96774 13.9367Z" fill="#FF0000"/>
<path d="M9.00788 13.6192C8.72691 13.9124 8.89794 14.3461 9.31329 14.4255C9.42323 14.4438 11.0724 14.456 12.9781 14.4438L16.4353 14.4255L16.5941 14.2789C16.7895 14.0957 16.8017 13.8574 16.6246 13.6376L16.5024 13.4787H12.8193H9.13615L9.00788 13.6192Z" fill="#FF0000"/>
<path d="M5.41019 18.2433C4.09696 18.2677 3.91983 18.286 3.8221 18.3838C3.71827 18.4815 3.71216 18.6525 3.71216 20.4666C3.71216 22.3235 3.71827 22.4517 3.82821 22.5739C3.94426 22.696 3.99313 22.7021 5.83165 22.7021C7.63352 22.7021 7.71903 22.696 7.83508 22.58C7.95114 22.4639 7.95724 22.3784 7.95724 20.4849C7.95724 19.4038 7.93281 18.4876 7.90838 18.451C7.78622 18.2677 7.548 18.1822 7.22428 18.1944C7.04104 18.2005 6.22256 18.225 5.41019 18.2433ZM6.97996 20.4422V21.7249H5.81943H4.6589V20.4849C4.6589 19.8008 4.67723 19.2206 4.70166 19.2022C4.71998 19.1778 5.24528 19.1595 5.86219 19.1595H6.97996V20.4422Z" fill="#FF0000"/>
<path d="M10.2051 20.002L9.0629 20.0142L8.94074 20.1791C8.76971 20.3868 8.78193 20.5822 8.95906 20.7899L9.10566 20.9609H11.3107C13.5034 20.9609 13.5157 20.9609 13.65 20.8266C13.8211 20.6494 13.8333 20.3013 13.6684 20.1364C13.5584 20.0264 13.4424 20.0142 12.4468 20.002C11.8421 19.9898 10.8342 19.9898 10.2051 20.002Z" fill="#FF0000"/>
<path d="M3.85878 24.8336L3.71219 24.9496L3.69386 26.9042L3.67554 28.8588L3.82824 29.0298L3.97483 29.2069L5.64843 29.2252C7.45641 29.2436 7.65798 29.2313 7.84122 29.0481C7.95116 28.9382 7.95727 28.8343 7.95727 26.9592V24.9802L7.81679 24.8519C7.6763 24.7175 7.63965 24.7175 5.83778 24.7175C4.12142 24.7175 3.99315 24.7236 3.85878 24.8336ZM6.96777 26.9592L6.94944 28.2296H5.81946H4.68947L4.67115 26.9592L4.65893 25.6948H5.81946H6.97998L6.96777 26.9592Z" fill="#FF0000"/>
</svg>
