<svg width="33" height="33" viewBox="0 0 33 33" fill="none" xmlns="http://www.w3.org/2000/svg">
<path d="M24.1864 23.5461H28.3718C29.3676 23.5461 30.1507 22.7629 30.1507 21.7672V12.0427C30.1507 11.0469 29.3676 10.2638 28.3718 10.2638H24.1864V2.785C24.1864 1.73735 23.3514 0.902344 22.3037 0.902344H4.73227C3.68462 0.902344 2.84961 1.73735 2.84961 2.785V30.9678C2.84961 31.5578 3.38911 32.9023 4.80276 32.9023H22.4069C23.6113 32.9023 24.2383 31.5736 24.2383 30.9678L24.1864 23.5409V23.5461ZM11.5316 11.5707H26.1209C26.1209 13.3497 27.0078 14.6566 28.8386 14.8641V18.9406C27.0596 19.148 26.1209 20.4032 26.1209 22.2339H11.5316V11.5655V11.5707ZM28.3666 22.2391H27.4279C27.4279 21.819 27.4797 21.2485 27.848 20.8284C28.0554 20.5691 28.4237 20.4083 28.8438 20.3046V21.7672C28.8438 22.0265 28.6363 22.2391 28.3718 22.2391H28.3666ZM28.8386 12.0427V13.5053C28.4185 13.4534 28.1073 13.2459 27.8428 12.9814C27.4746 12.5613 27.4227 11.9856 27.4227 11.5189H28.3614C28.6208 11.5707 28.8334 11.7782 28.8334 12.0427H28.8386ZM11.5316 10.2638V8.27737C11.5316 7.90913 11.2152 7.59795 10.8522 7.59795C10.4891 7.59795 10.1728 7.91432 10.1728 8.27737V24.9568C10.1728 25.3198 10.4891 25.6362 10.8522 25.6362C11.2152 25.6362 11.5316 25.3198 11.5316 24.9568V23.6498H22.8794V27.6226H4.21363V6.23393H22.8794V10.2067H11.5316V10.2586V10.2638ZM4.73227 2.26117H22.3037C22.6201 2.26117 22.8794 2.52049 22.8794 2.83686V4.92698H4.21363V2.83686C4.21363 2.46862 4.47294 2.26117 4.73744 2.26117H4.73227ZM4.73227 31.5435C4.42109 31.5435 4.15657 31.2842 4.15657 30.9678V28.8777H22.8224V30.9678C22.8224 31.2842 22.5631 31.5435 22.2467 31.5435H4.72708H4.73227Z" fill="#FF0000"/>
<path d="M14.8767 29.5625H12.8904C12.5221 29.5625 12.2109 29.8737 12.2109 30.2419C12.2109 30.6101 12.5221 30.9213 12.8904 30.9213H14.8767C15.245 30.9213 15.5562 30.6101 15.5562 30.2419C15.5043 29.8737 15.245 29.5625 14.8767 29.5625Z" fill="#FF0000"/>
<path d="M12.8904 4.25287H14.8767C15.245 4.25287 15.5562 3.94169 15.5562 3.57346C15.5562 3.20522 15.245 2.89404 14.8767 2.89404H12.8904C12.5221 2.89404 12.2109 3.20522 12.2109 3.57346C12.2109 3.94169 12.4703 4.25287 12.8904 4.25287Z" fill="#FF0000"/>
<path d="M14.1976 24.9048H12.8906V26.2118H14.1976V24.9048Z" fill="#FF0000"/>
<path d="M17.4906 24.9048H16.1836V26.2118H17.4906V24.9048Z" fill="#FF0000"/>
<path d="M20.8412 24.9048H19.5342V26.2118H20.8412V24.9048Z" fill="#FF0000"/>
<path d="M14.1976 7.59814H12.8906V8.90512H14.1976V7.59814Z" fill="#FF0000"/>
<path d="M17.4906 7.59814H16.1836V8.90512H17.4906V7.59814Z" fill="#FF0000"/>
<path d="M20.8412 7.59814H19.5342V8.90512H20.8412V7.59814Z" fill="#FF0000"/>
<path d="M19.5343 12.9346C17.3353 12.9346 15.5615 14.7135 15.5615 16.9073C15.5615 19.1012 17.3404 20.8801 19.5343 20.8801C21.7281 20.8801 23.5071 19.1012 23.5071 16.9073C23.5071 14.7135 21.7281 12.9346 19.5343 12.9346ZM19.5343 19.5731C18.0717 19.5731 16.8685 18.3699 16.8685 16.9073C16.8685 15.4448 18.0717 14.2415 19.5343 14.2415C20.9968 14.2415 22.2001 15.4448 22.2001 16.9073C22.2001 18.3699 20.9968 19.5731 19.5343 19.5731Z" fill="#FF0000"/>
</svg>
