<svg width="21" height="21" viewBox="0 0 21 21" fill="none" xmlns="http://www.w3.org/2000/svg">
<g clip-path="url(#clip0_214_61915)">
<path d="M19.3568 1.46768C19.601 1.66339 19.715 1.97948 19.6519 2.28605L16.7352 16.4527C16.683 16.7063 16.5159 16.9212 16.283 17.0343C16.0501 17.1474 15.7779 17.1458 15.5464 17.03L8.87968 13.6967C8.64883 13.5813 8.48449 13.3654 8.43469 13.1121C8.38489 12.8589 8.45525 12.5968 8.62521 12.4026L11.5419 9.06926C11.8449 8.72289 12.3714 8.68779 12.7178 8.99086C13.0641 9.29393 13.0992 9.8204 12.7962 10.1668L10.5898 12.6884L15.3215 15.0542L17.6907 3.5471L4.11168 9.65764L6.70837 10.956C6.99069 11.0971 7.16903 11.3857 7.16903 11.7013V16.9744L8.56967 14.9735C8.8336 14.5964 9.3532 14.5047 9.73025 14.7687C10.1073 15.0326 10.199 15.5522 9.93505 15.9292L7.01839 20.0959C6.8098 20.3939 6.43206 20.5221 6.08516 20.4128C5.73826 20.3034 5.50236 19.9817 5.50236 19.618V12.2164L1.79635 10.3634C1.50855 10.2195 1.3293 9.92272 1.33587 9.60101C1.34243 9.27931 1.53362 8.99012 1.82706 8.85808L18.4937 1.35808C18.7792 1.22963 19.1125 1.27196 19.3568 1.46768Z" fill="#757575"/>
</g>
<defs>
<clipPath id="clip0_214_61915">
<rect width="20" height="20" fill="white" transform="translate(0.502441 0.451172)"/>
</clipPath>
</defs>
</svg>
