<svg width="20" height="21" viewBox="0 0 20 21" fill="none" xmlns="http://www.w3.org/2000/svg">
<g clip-path="url(#clip0_214_62465)">
<path d="M18.8558 1.37002C19.1001 1.56574 19.2141 1.88182 19.1509 2.1884L16.2343 16.3551C16.1821 16.6086 16.015 16.8236 15.7821 16.9366C15.5492 17.0497 15.2769 17.0482 15.0454 16.9324L8.37871 13.599C8.14785 13.4836 7.98351 13.2677 7.93371 13.0145C7.88391 12.7612 7.95427 12.4992 8.12424 12.3049L11.0409 8.9716C11.344 8.62524 11.8704 8.59014 12.2168 8.89321C12.5632 9.19627 12.5983 9.72274 12.2952 10.0691L10.0888 12.5907L14.8206 14.9566L17.1897 3.44944L3.6107 9.55998L6.2074 10.8583C6.48972 10.9995 6.66805 11.288 6.66805 11.6037V16.8767L8.06869 14.8758C8.33262 14.4988 8.85223 14.4071 9.22927 14.671C9.60631 14.9349 9.69801 15.4545 9.43408 15.8316L6.51741 19.9982C6.30883 20.2962 5.93108 20.4245 5.58419 20.3151C5.23729 20.2058 5.00138 19.8841 5.00138 19.5204V12.1187L1.29537 10.2657C1.00757 10.1218 0.828328 9.82507 0.834891 9.50336C0.841454 9.18165 1.03265 8.89246 1.32608 8.76042L17.9927 1.26042C18.2782 1.13197 18.6115 1.17431 18.8558 1.37002Z" fill="white"/>
</g>
<defs>
<clipPath id="clip0_214_62465">
<rect width="20" height="20" fill="white" transform="translate(0.00146484 0.353516)"/>
</clipPath>
</defs>
</svg>
