<svg width="21" height="21" viewBox="0 0 21 21" fill="none" xmlns="http://www.w3.org/2000/svg">
<path fill-rule="evenodd" clip-rule="evenodd" d="M16.5196 3.55755C16.6494 3.42776 16.8138 3.36719 16.9782 3.36719C17.1426 3.36719 17.307 3.43641 17.4368 3.55755C17.6877 3.80849 17.6877 4.22384 17.4368 4.47477L11.795 10.1165C11.5754 10.3341 11.3237 10.5 11.0552 10.6144C11.3237 10.7287 11.5754 10.8947 11.795 11.1122L17.4368 16.754C17.6877 17.0049 17.6877 17.4202 17.4368 17.6712C17.307 17.7923 17.1426 17.8615 16.9782 17.8615C16.8138 17.8615 16.6494 17.801 16.5196 17.6712L10.8778 12.0294C10.4625 11.6141 9.78753 11.6141 9.37219 12.0294L3.73042 17.6712C3.47949 17.9221 3.06414 17.9221 2.8132 17.6712C2.56227 17.4202 2.56227 17.0049 2.8132 16.754L8.45497 11.1122C8.6725 10.8947 8.92265 10.7287 9.19006 10.6144C8.92265 10.5 8.6725 10.3341 8.45497 10.1165L2.8132 4.47477C2.56227 4.22384 2.56227 3.80849 2.8132 3.55755C3.06414 3.30662 3.47949 3.30662 3.73042 3.55755L9.37219 9.19932C9.78753 9.61466 10.4625 9.61466 10.8778 9.19932L16.5196 3.55755Z" fill="#757575"/>
</svg>
