<svg width="21" height="21" viewBox="0 0 21 21" fill="none" xmlns="http://www.w3.org/2000/svg">
<path d="M7.62492 5.45133C7.62492 4.07062 8.74421 2.95133 10.1249 2.95133C11.5056 2.95133 12.6249 4.07062 12.6249 5.45133C12.6249 6.83205 11.5056 7.95133 10.1249 7.95133C8.74421 7.95133 7.62492 6.83205 7.62492 5.45133ZM10.1249 1.28467C7.82373 1.28467 5.95825 3.15015 5.95825 5.45133C5.95825 7.75252 7.82373 9.618 10.1249 9.618C12.4261 9.618 14.2916 7.75252 14.2916 5.45133C14.2916 3.15015 12.4261 1.28467 10.1249 1.28467ZM7.62492 11.2847C5.32373 11.2847 3.45825 13.1501 3.45825 15.4513V17.9513C3.45825 18.4116 3.83135 18.7847 4.29159 18.7847C4.75182 18.7847 5.12492 18.4116 5.12492 17.9513V15.4513C5.12492 14.0706 6.24421 12.9513 7.62492 12.9513H12.6249C14.0056 12.9513 15.1249 14.0706 15.1249 15.4513V17.9513C15.1249 18.4116 15.498 18.7847 15.9583 18.7847C16.4185 18.7847 16.7916 18.4116 16.7916 17.9513V15.4513C16.7916 13.1501 14.9261 11.2847 12.6249 11.2847H7.62492Z" fill="#757575"/>
</svg>
