<svg width="21" height="21" viewBox="0 0 21 21" fill="none" xmlns="http://www.w3.org/2000/svg">
<g clip-path="url(#clip0_214_61926)">
<path d="M6.79167 2.95133C5.41095 2.95133 4.29167 4.07062 4.29167 5.45133C4.29167 6.83205 5.41095 7.95133 6.79167 7.95133C8.17238 7.95133 9.29167 6.83205 9.29167 5.45133C9.29167 4.07062 8.17238 2.95133 6.79167 2.95133ZM2.625 5.45133C2.625 3.15015 4.49048 1.28467 6.79167 1.28467C9.09285 1.28467 10.9583 3.15015 10.9583 5.45133C10.9583 7.75252 9.09285 9.618 6.79167 9.618C4.49048 9.618 2.625 7.75252 2.625 5.45133ZM0.125 15.4513C0.125 13.1501 1.99048 11.2847 4.29167 11.2847H9.29167C11.5929 11.2847 13.4583 13.1501 13.4583 15.4513V17.9513C13.4583 18.4116 13.0852 18.7847 12.625 18.7847C12.1648 18.7847 11.7917 18.4116 11.7917 17.9513V15.4513C11.7917 14.0706 10.6724 12.9513 9.29167 12.9513H4.29167C2.91095 12.9513 1.79167 14.0706 1.79167 15.4513V17.9513C1.79167 18.4116 1.41857 18.7847 0.958333 18.7847C0.498096 18.7847 0.125 18.4116 0.125 17.9513V15.4513ZM16.7917 6.28467C17.2519 6.28467 17.625 6.65776 17.625 7.118V8.78467H19.2917C19.7519 8.78467 20.125 9.15776 20.125 9.618C20.125 10.0782 19.7519 10.4513 19.2917 10.4513H17.625V12.118C17.625 12.5782 17.2519 12.9513 16.7917 12.9513C16.3314 12.9513 15.9583 12.5782 15.9583 12.118V10.4513H14.2917C13.8314 10.4513 13.4583 10.0782 13.4583 9.618C13.4583 9.15776 13.8314 8.78467 14.2917 8.78467H15.9583V7.118C15.9583 6.65776 16.3314 6.28467 16.7917 6.28467Z" fill="#757575"/>
</g>
<defs>
<clipPath id="clip0_214_61926">
<rect width="20" height="20" fill="white" transform="translate(0.125 0.451172)"/>
</clipPath>
</defs>
</svg>
