<svg width="21" height="21" viewBox="0 0 21 21" fill="none" xmlns="http://www.w3.org/2000/svg">
<path d="M14.9079 19.6021H6.49127C6.23294 19.6021 5.99961 19.4438 5.90794 19.1938C5.81627 18.9438 5.88293 18.6771 6.08293 18.5021C6.66627 17.9854 7.00794 17.2438 7.00794 16.4688C7.00794 14.9771 5.79127 13.7604 4.2996 13.7604C3.68293 13.7604 3.0996 13.9688 2.60794 14.3604C2.41627 14.5104 2.16627 14.5354 1.94961 14.4354C1.73294 14.3354 1.59961 14.1104 1.59961 13.8688V10.2271C1.59961 8.15209 3.28294 6.46875 5.35794 6.46875H14.9246C16.9996 6.46875 18.6829 8.15209 18.6829 10.2271V11.4271C18.6829 11.7688 18.3996 12.0521 18.0579 12.0521H16.3746C16.0829 12.0521 15.8163 12.1604 15.6246 12.3604L15.6163 12.3688C15.3829 12.5938 15.2746 12.9021 15.2996 13.2188C15.3496 13.7688 15.8746 14.2104 16.4746 14.2104H18.0579C18.3996 14.2104 18.6829 14.4938 18.6829 14.8354V15.8271C18.6663 17.9187 16.9829 19.6021 14.9079 19.6021ZM7.7746 18.3521H14.9079C16.2913 18.3521 17.4163 17.2271 17.4163 15.8438V15.4771H16.4579C15.1996 15.4771 14.1329 14.5438 14.0329 13.3438C13.9663 12.6604 14.2163 11.9854 14.7163 11.4938C15.1496 11.0521 15.7329 10.8104 16.3579 10.8104H17.4163V10.2354C17.4163 8.8521 16.2913 7.72709 14.9079 7.72709H5.34127C3.95793 7.72709 2.83294 8.8521 2.83294 10.2354V12.8021C3.29961 12.6188 3.79127 12.5188 4.29127 12.5188C6.47461 12.5188 8.24961 14.2938 8.24961 16.4771C8.24961 17.1354 8.08293 17.7854 7.7746 18.3521Z" fill="#757575"/>
<path d="M2.20801 10.8602C1.86634 10.8602 1.58301 10.5768 1.58301 10.2352V7.17686C1.58301 5.93519 2.35801 4.80181 3.51635 4.36848L10.133 1.86848C10.8163 1.61848 11.583 1.71019 12.1747 2.12686C12.7663 2.54352 13.1247 3.21851 13.1247 3.93518V7.10183C13.1247 7.4435 12.8413 7.72683 12.4997 7.72683C12.158 7.72683 11.8747 7.4435 11.8747 7.10183V3.93518C11.8747 3.61851 11.7247 3.33518 11.4663 3.15184C11.1997 2.96851 10.8747 2.92683 10.5747 3.03516L3.95801 5.53516C3.27468 5.7935 2.83301 6.43519 2.83301 7.17686V10.2352C2.83301 10.5768 2.54967 10.8602 2.20801 10.8602Z" fill="#757575"/>
<path d="M16.459 15.4767C15.2007 15.4767 14.134 14.5434 14.034 13.3434C13.9674 12.6517 14.2174 11.9767 14.7174 11.4851C15.1424 11.0517 15.7257 10.8101 16.3507 10.8101H18.084C18.909 10.8351 19.5424 11.485 19.5424 12.285V14.0017C19.5424 14.8017 18.909 15.4517 18.109 15.4767H16.459ZM18.0674 12.0601H16.359C16.0674 12.0601 15.8007 12.1684 15.609 12.3684C15.3674 12.6017 15.2507 12.9184 15.284 13.235C15.334 13.785 15.859 14.2267 16.459 14.2267H18.0924C18.2007 14.2267 18.3007 14.1267 18.3007 14.0017V12.285C18.3007 12.16 18.2007 12.0684 18.0674 12.0601Z" fill="#757575"/>
<path d="M11.7913 11.2686H5.95801C5.61634 11.2686 5.33301 10.9852 5.33301 10.6436C5.33301 10.3019 5.61634 10.0186 5.95801 10.0186H11.7913C12.133 10.0186 12.4163 10.3019 12.4163 10.6436C12.4163 10.9852 12.133 11.2686 11.7913 11.2686Z" fill="#757575"/>
<path d="M4.29134 20.4352C2.10801 20.4352 0.333008 18.6602 0.333008 16.4769C0.333008 15.2602 0.874673 14.1352 1.81634 13.3852C2.51634 12.8269 3.39967 12.5186 4.29134 12.5186C6.47467 12.5186 8.24967 14.2936 8.24967 16.4769C8.24967 17.6102 7.75801 18.6936 6.90801 19.4436C6.17467 20.0852 5.24967 20.4352 4.29134 20.4352ZM4.29134 13.7686C3.67467 13.7686 3.09134 13.9769 2.59968 14.3685C1.95801 14.8769 1.58301 15.6519 1.58301 16.4769C1.58301 17.9686 2.79967 19.1852 4.29134 19.1852C4.94134 19.1852 5.57467 18.9436 6.083 18.5102C6.66634 17.9936 6.99967 17.2602 6.99967 16.4769C6.99967 14.9852 5.78301 13.7686 4.29134 13.7686Z" fill="#757575"/>
<path d="M3.45856 17.9351C3.25023 17.9351 3.0419 17.8267 2.92523 17.6351C2.75023 17.3351 2.84189 16.9517 3.14189 16.7767L3.88356 16.3351V15.4351C3.88356 15.0934 4.16689 14.8101 4.50856 14.8101C4.85022 14.8101 5.13356 15.0934 5.13356 15.4351V16.6851C5.13356 16.9017 5.01689 17.1101 4.83356 17.2184L3.79189 17.8434C3.68356 17.9101 3.56689 17.9351 3.45856 17.9351Z" fill="#757575"/>
</svg>