<svg width="21" height="21" viewBox="0 0 21 21" fill="none" xmlns="http://www.w3.org/2000/svg">
<path d="M1.20446 20.4512C1.0185 20.4512 0.841811 20.3768 0.711639 20.2466C0.534977 20.07 0.460638 19.8096 0.525724 19.5679L1.69728 15.1885C0.916249 13.738 0.50711 12.1016 0.50711 10.4465C0.50711 4.93281 4.98874 0.451172 10.5025 0.451172C16.0162 0.451172 20.4978 4.93281 20.4978 10.4465C20.4978 15.9602 16.0162 20.4419 10.5025 20.4419C8.81952 20.4419 7.1738 20.0235 5.70472 19.2238L1.39043 20.4233C1.32535 20.4419 1.26955 20.4512 1.20446 20.4512ZM5.79767 17.7827C5.91855 17.7827 6.03942 17.8198 6.151 17.8756C7.46202 18.6474 8.96829 19.0565 10.5025 19.0565C15.2444 19.0565 19.1031 15.1978 19.1031 10.4558C19.1031 5.71385 15.2444 1.85518 10.5025 1.85518C5.76048 1.85518 1.90181 5.71385 1.90181 10.4558C1.90181 11.9714 2.30161 13.4498 3.05475 14.7515C3.14773 14.9096 3.17564 15.1048 3.12915 15.2815L2.19935 18.7589L5.62101 17.8105C5.6768 17.7919 5.74188 17.7827 5.79767 17.7827Z" fill="#757575"/>
<path d="M13.05 15.8115C12.4735 15.8115 11.8785 15.6813 11.2555 15.4116C10.6697 15.1606 10.084 14.8259 9.5168 14.4075C8.95892 13.9983 8.41035 13.5334 7.90826 13.0313C7.40617 12.52 6.94123 11.9807 6.53212 11.4228C6.11371 10.837 5.77898 10.2605 5.53723 9.69337C5.27688 9.0797 5.14673 8.47534 5.14673 7.89886C5.14673 7.48975 5.22109 7.09923 5.36056 6.73661C5.50933 6.35539 5.75109 6.01136 6.06722 5.71382C6.66229 5.12805 7.51775 4.91422 8.1965 5.23965C8.42895 5.34192 8.6242 5.50929 8.77297 5.73244L9.85151 7.24799C9.96309 7.39676 10.0468 7.55482 10.1119 7.71289C10.1863 7.89885 10.2328 8.08483 10.2328 8.2615C10.2328 8.50324 10.1677 8.74499 10.0375 8.95885C9.9538 9.09832 9.83291 9.26568 9.67485 9.42375L9.55397 9.5539C9.60976 9.62829 9.67483 9.72125 9.77711 9.83283C9.97237 10.056 10.1862 10.2977 10.4187 10.5302C10.6511 10.7533 10.8836 10.9765 11.116 11.1717C11.2276 11.2647 11.3206 11.3391 11.395 11.3856L11.5251 11.2554C11.6925 11.0881 11.8599 10.9579 12.0273 10.8742C12.3341 10.679 12.8083 10.6325 13.2267 10.8091C13.3755 10.8649 13.5242 10.9486 13.6823 11.0602L15.2351 12.1573C15.4489 12.3061 15.6163 12.5107 15.7279 12.7431C15.8208 12.9756 15.858 13.1801 15.858 13.394C15.858 13.6729 15.7929 13.9426 15.6721 14.2029C15.5512 14.4446 15.4117 14.6585 15.2443 14.8538C14.9468 15.1792 14.6028 15.4209 14.2309 15.579C13.859 15.7371 13.4591 15.8115 13.05 15.8115ZM7.51771 6.49485C7.46192 6.49485 7.27601 6.49485 7.04356 6.7273C6.86689 6.89467 6.74599 7.07134 6.66231 7.2666C6.57862 7.46186 6.54143 7.68501 6.54143 7.90817C6.54143 8.29868 6.6344 8.71707 6.82036 9.16337C7.01561 9.62827 7.30388 10.1211 7.6572 10.6139C8.01982 11.1067 8.42894 11.5995 8.88454 12.0551C9.34014 12.5014 9.82363 12.9198 10.3257 13.2917C10.8092 13.645 11.302 13.924 11.7948 14.1378C12.5015 14.4446 13.1523 14.519 13.6823 14.2959C13.8682 14.2215 14.0356 14.0913 14.203 13.924C14.2867 13.831 14.3518 13.738 14.4076 13.6171C14.4354 13.552 14.454 13.4777 14.454 13.4126C14.454 13.394 14.454 13.3661 14.4261 13.3103L12.8734 12.2317C12.8083 12.1852 12.7432 12.148 12.6874 12.1294C12.6502 12.148 12.5944 12.1759 12.4922 12.2782L12.1388 12.6315C11.8692 12.9012 11.4415 12.9756 11.0975 12.8547L10.9301 12.7803C10.7163 12.6687 10.4745 12.5014 10.2048 12.2689C9.9445 12.0458 9.69348 11.8133 9.42384 11.553C9.1635 11.2833 8.93103 11.0323 8.70788 10.7719C8.46613 10.4837 8.29877 10.2513 8.18719 10.056L8.08493 9.81424C8.05703 9.72126 8.0477 9.61899 8.0477 9.52601C8.0477 9.26567 8.14072 9.03321 8.31738 8.84725L8.67071 8.48464C8.77298 8.38236 8.81016 8.32658 8.82876 8.28939C8.80086 8.2243 8.76367 8.1685 8.71718 8.10342L7.62928 6.56925L7.51771 6.49485Z" fill="#757575"/>
</svg>
