<svg width="20" height="21" viewBox="0 0 20 21" fill="none" xmlns="http://www.w3.org/2000/svg">
<path d="M0.703483 20.3535C0.517523 20.3535 0.340834 20.2791 0.210662 20.149C0.0340002 19.9723 -0.0403384 19.7119 0.0247476 19.4702L1.1963 15.0908C0.415273 13.6404 0.00613343 12.0039 0.00613343 10.3489C0.00613343 4.83515 4.48777 0.353516 10.0015 0.353516C15.5152 0.353516 19.9968 4.83515 19.9968 10.3489C19.9968 15.8626 15.5152 20.3442 10.0015 20.3442C8.31854 20.3442 6.67282 19.9258 5.20374 19.1262L0.889454 20.3256C0.824369 20.3442 0.768569 20.3535 0.703483 20.3535ZM5.2967 17.685C5.41757 17.685 5.53845 17.7222 5.65002 17.778C6.96104 18.5497 8.46731 18.9588 10.0015 18.9588C14.7435 18.9588 18.6021 15.1001 18.6021 10.3582C18.6021 5.61619 14.7435 1.75752 10.0015 1.75752C5.2595 1.75752 1.40083 5.61619 1.40083 10.3582C1.40083 11.8737 1.80064 13.3521 2.55378 14.6538C2.64676 14.8119 2.67467 15.0072 2.62818 15.1838L1.69838 18.6613L5.12003 17.7129C5.17582 17.6943 5.24091 17.685 5.2967 17.685Z" fill="white"/>
<path d="M12.549 15.7138C11.9726 15.7138 11.3775 15.5836 10.7545 15.314C10.1688 15.0629 9.583 14.7282 9.01582 14.3098C8.45794 13.9007 7.90938 13.4358 7.40729 12.9337C6.90519 12.4223 6.44026 11.883 6.03114 11.3252C5.61273 10.7394 5.278 10.1629 5.03625 9.59571C4.77591 8.98204 4.64575 8.37768 4.64575 7.8012C4.64575 7.39209 4.72012 7.00158 4.85959 6.63895C5.00836 6.25774 5.25011 5.9137 5.56624 5.61617C6.16132 5.03039 7.01677 4.81656 7.69552 5.14199C7.92797 5.24427 8.12323 5.41163 8.27199 5.63478L9.35054 7.15033C9.46211 7.2991 9.54582 7.45717 9.61091 7.61523C9.68529 7.80119 9.73179 7.98718 9.73179 8.16384C9.73179 8.40559 9.66668 8.64733 9.53651 8.86119C9.45283 9.00066 9.33194 9.16802 9.17387 9.32609L9.05299 9.45625C9.10878 9.53063 9.17386 9.6236 9.27614 9.73517C9.47139 9.95833 9.68525 10.2001 9.9177 10.4325C10.1502 10.6557 10.3826 10.8788 10.615 11.0741C10.7266 11.1671 10.8197 11.2415 10.894 11.288L11.0242 11.1578C11.1915 10.9904 11.3589 10.8603 11.5263 10.7766C11.8331 10.5813 12.3073 10.5348 12.7257 10.7115C12.8745 10.7673 13.0232 10.8509 13.1813 10.9625L14.7341 12.0597C14.948 12.2084 15.1153 12.413 15.2269 12.6455C15.3199 12.8779 15.3571 13.0825 15.3571 13.2963C15.3571 13.5753 15.292 13.8449 15.1711 14.1052C15.0502 14.347 14.9107 14.5609 14.7434 14.7561C14.4458 15.0815 14.1018 15.3233 13.7299 15.4814C13.358 15.6394 12.9582 15.7138 12.549 15.7138ZM7.01673 6.3972C6.96094 6.3972 6.77503 6.3972 6.54258 6.62965C6.36592 6.79701 6.24501 6.97369 6.16133 7.16895C6.07765 7.3642 6.04045 7.58736 6.04045 7.81051C6.04045 8.20103 6.13342 8.61941 6.31938 9.06572C6.51464 9.53062 6.8029 10.0234 7.15622 10.5162C7.51884 11.009 7.92796 11.5018 8.38356 11.9574C8.83917 12.4037 9.32265 12.8221 9.82474 13.194C10.3082 13.5474 10.801 13.8263 11.2938 14.0402C12.0005 14.347 12.6513 14.4214 13.1813 14.1982C13.3673 14.1238 13.5346 13.9937 13.702 13.8263C13.7857 13.7333 13.8508 13.6403 13.9066 13.5195C13.9345 13.4544 13.9531 13.38 13.9531 13.3149C13.9531 13.2963 13.953 13.2684 13.9251 13.2126L12.3724 12.1341C12.3073 12.0876 12.2422 12.0504 12.1864 12.0318C12.1492 12.0504 12.0935 12.0783 11.9912 12.1806L11.6379 12.5339C11.3682 12.8035 10.9405 12.8779 10.5965 12.757L10.4291 12.6827C10.2153 12.5711 9.97351 12.4037 9.70386 12.1713C9.44352 11.9481 9.19251 11.7157 8.92286 11.4553C8.66252 11.1857 8.43005 10.9346 8.2069 10.6743C7.96515 10.386 7.79779 10.1536 7.68622 9.95835L7.58395 9.71659C7.55606 9.62361 7.54672 9.52133 7.54672 9.42835C7.54672 9.16801 7.63974 8.93555 7.8164 8.74959L8.16973 8.38698C8.27201 8.2847 8.30918 8.22892 8.32778 8.19173C8.29989 8.12665 8.2627 8.07085 8.21621 8.00576L7.1283 6.4716L7.01673 6.3972Z" fill="white"/>
</svg>
